<svg width="120" height="148" viewBox="0 0 120 148" fill="none" xmlns="http://www.w3.org/2000/svg">
<g filter="url(#filter0_d)">
<path d="M87.4028 0H11.8106C9.70605 0 8 1.6375 8 4.815V137.5C8 138.363 9.70605 140 11.8106 140H116.189C118.294 140 120 138.363 120 137.5V32.445C120 30.705 119.758 30.145 119.331 29.7325L89.0229 0.6425C88.5931 0.2325 88.0097 0 87.4028 0Z" fill="white"/>
<path d="M88.7441 0.377563V30.0001H119.607L88.7441 0.377563Z" fill="#D9D7CA"/>
<path d="M41.8969 83.31C40.9904 83.31 40.1205 83.0275 39.3782 82.495C36.6667 80.5425 36.3021 78.37 36.474 76.89C36.948 72.82 42.1912 68.56 52.0628 64.22C55.9802 55.98 59.7075 45.8275 61.9292 37.345C59.3298 31.915 56.8033 24.87 58.6448 20.7375C59.2907 19.29 60.0956 18.18 61.5984 17.7C62.1923 17.51 63.6926 17.27 64.2448 17.27C65.5575 17.27 66.7114 18.8925 67.5292 19.8925C68.2976 20.8325 70.0401 22.825 66.5577 36.8975C70.0688 43.8575 75.0436 50.9475 79.8102 55.8025C83.2249 55.21 86.1629 54.9075 88.5566 54.9075C92.6355 54.9075 95.1073 55.82 96.1153 57.7C96.9488 59.255 96.6076 61.0725 95.0995 63.1C93.6487 65.0475 91.6483 66.0775 89.3171 66.0775C86.1499 66.0775 82.4617 64.1575 78.3489 60.365C70.9596 61.8475 62.3303 64.4925 55.3551 67.42C53.1776 71.855 51.0913 75.4275 49.1482 78.0475C46.4784 81.635 44.1759 83.31 41.8969 83.31ZM48.8304 70.495C43.2643 73.4975 40.9957 75.965 40.8316 77.355C40.8055 77.585 40.7352 78.19 41.9542 79.085C42.3423 78.9675 44.6083 77.975 48.8304 70.495ZM84.3501 59.39C86.4729 60.9575 86.9912 61.75 88.3795 61.75C88.989 61.75 90.7262 61.725 91.5311 60.6475C91.9192 60.125 92.0702 59.79 92.1302 59.61C91.8098 59.4475 91.3852 59.1175 89.0697 59.1175C87.7543 59.12 86.1004 59.175 84.3501 59.39ZM64.8933 42.935C63.031 49.12 60.5722 55.7975 57.9285 61.845C63.3722 59.8175 69.29 58.0475 74.8483 56.795C71.332 52.875 67.8183 47.98 64.8933 42.935ZM63.3123 21.78C63.057 21.8625 59.8481 26.1725 63.5624 29.82C66.0342 24.5325 63.4243 21.745 63.3123 21.78Z" fill="#CC4B4C"/>
<path d="M116.189 140H11.8106C9.70605 140 8 138.362 8 136.342V97.5H120V136.342C120 138.362 118.294 140 116.189 140Z" fill="#CC4B4C"/>
<path d="M36.3516 132.5H32.0774V107.31H39.6257C40.7405 107.31 41.8448 107.48 42.9362 107.822C44.0275 108.165 45.0069 108.677 45.8742 109.36C46.7416 110.042 47.4422 110.87 47.9762 111.837C48.5101 112.805 48.7784 113.892 48.7784 115.102C48.7784 116.38 48.5518 117.535 48.1012 118.572C47.6506 119.61 47.0203 120.482 46.2128 121.187C45.4054 121.892 44.4313 122.44 43.293 122.827C42.1548 123.215 40.8941 123.407 39.5189 123.407H36.349V132.5H36.3516ZM36.3516 110.42V120.4H40.269C40.7899 120.4 41.3057 120.315 41.8188 120.142C42.3293 119.972 42.7981 119.692 43.2253 119.305C43.6525 118.917 43.9963 118.377 44.2567 117.682C44.5172 116.987 44.6474 116.127 44.6474 115.102C44.6474 114.692 44.5875 114.217 44.4703 113.685C44.3505 113.15 44.1083 112.637 43.741 112.147C43.3712 111.657 42.8554 111.247 42.1913 110.917C41.5271 110.587 40.6467 110.422 39.5553 110.422H36.3516V110.42Z" fill="white"/>
<path d="M74.9889 119.205C74.9889 121.277 74.7571 123.05 74.2934 124.52C73.8298 125.99 73.2438 127.22 72.5301 128.212C71.8164 129.205 71.0168 129.985 70.126 130.555C69.2352 131.125 68.3757 131.55 67.5448 131.837C66.7139 132.122 65.9533 132.305 65.2657 132.385C64.5781 132.46 64.0676 132.5 63.7342 132.5H53.8V107.31H61.7052C63.9139 107.31 65.8544 107.647 67.5266 108.317C69.1987 108.987 70.5896 109.885 71.694 111C72.7984 112.115 73.6214 113.387 74.1684 114.81C74.7154 116.235 74.9889 117.7 74.9889 119.205ZM62.312 129.492C65.2084 129.492 67.2973 128.605 68.5788 126.827C69.8603 125.05 70.5011 122.475 70.5011 119.102C70.5011 118.055 70.3708 117.017 70.1104 115.992C69.8473 114.967 69.3446 114.04 68.5971 113.207C67.8495 112.375 66.8337 111.702 65.5522 111.19C64.2707 110.677 62.609 110.42 60.5669 110.42H58.0743V129.492H62.312Z" fill="white"/>
<path d="M85.53 110.42V118.35H96.4982V121.152H85.53V132.5H81.1854V107.31H97.5999V110.42H85.53Z" fill="white"/>
</g>
<defs>
<filter id="filter0_d" x="0" y="0" width="120" height="148" filterUnits="userSpaceOnUse" color-interpolation-filters="sRGB">
<feFlood flood-opacity="0" result="BackgroundImageFix"/>
<feColorMatrix in="SourceAlpha" type="matrix" values="0 0 0 0 0 0 0 0 0 0 0 0 0 0 0 0 0 0 127 0"/>
<feOffset dx="-4" dy="4"/>
<feGaussianBlur stdDeviation="2"/>
<feColorMatrix type="matrix" values="0 0 0 0 0 0 0 0 0 0 0 0 0 0 0 0 0 0 0.25 0"/>
<feBlend mode="normal" in2="BackgroundImageFix" result="effect1_dropShadow"/>
<feBlend mode="normal" in="SourceGraphic" in2="effect1_dropShadow" result="shape"/>
</filter>
</defs>
</svg>
