<svg xmlns="http://www.w3.org/2000/svg" viewBox="0 0 3232.04 1438.02"><g data-name="Layer 2"><g data-name="Layer 1 copy"><path d="M1432 324.74l9 16.72-1 2.53c-13.41 10.64-29.13 16-47.44 16.21-45.63 0-73-27.61-73-77.51V116.77h-46.41V94.48h46.41v-80.8l23.71-3.29 2.07 1.52v82.57H1431v22.29h-85.58v165.41c0 36.23 16.24 54.46 48.72 54.46 15.21 0 26.81-4.05 35.32-12.41zM1666.15 117.28c19.59 19.51 29.39 44.84 29.39 76.25v160.34h-26V195.55c0-25.58-7.73-46.1-22.94-61.3-15.21-14.94-35.83-22.54-61.36-22.54-26.55 0-47.94 8.1-64.7 24.06s-25.26 36.73-25.26 62.06v156h-25.78V3.29L1492.66 0l2.58 1.52V135c20.1-31.15 51.3-46.86 93.57-46.86 31.97.01 57.75 9.64 77.34 29.14zM1750 232.53c2.06 31.42 13.4 56.49 34.29 75.49s45.88 28.62 75 28.62c18.31 0 36.35-4.05 54.66-12.15 18-8.11 32.22-19 42.27-32.93h2.84l15.72 12.91v2.79c-12.11 16.46-28.61 29.38-49.75 38.76a157 157 0 01-65.22 14.18c-37.64 0-69.86-12.41-96.42-37.23-26.55-24.58-40-57.51-40-98.29 0-39 12.37-71.43 37.12-97.52 24.49-26.09 55.94-39 93.84-39 41.24 0 73.47 15.2 96.67 45.34 20.88 24.07 31.19 53.45 31.19 87.65a64.31 64.31 0 01-1 11.39zm32.74-94.22c-19.08 18-29.9 41.28-32.23 70.41h204.69c-2.06-22.54-9-41.54-21.14-57.24-17.78-26.6-44.34-39.77-79.65-39.77-28.84 0-52.81 8.86-71.63 26.6zM1516 521.28c19.59 19.51 29.39 44.84 29.39 76.25v160.34h-26V599.56c0-25.59-7.73-46.11-22.94-61.3-15.21-15-35.84-22.55-61.36-22.55-26.55 0-48 8.11-64.7 24.07s-25.27 36.73-25.27 62.06v156h-25.78V407.3l23.21-3.3 2.57 1.52V539c20.11-31.16 51.3-46.87 93.58-46.87 31.92.02 57.7 9.65 77.3 29.15zM1731.59 764.2c-40.21 0-73.47-13.17-100-39.26s-40-58.51-40-96.76 13.41-70.67 40-96.76 59.81-39.27 100-39.27c40 0 73.47 13.18 100 39.27s40 58.51 40 96.76-13.4 70.67-40 96.76-60.04 39.26-100 39.26zm0-23.55c32.74 0 59.55-10.64 81-32.17s32-48.13 32-80.3-10.57-58.77-32-80.3-48.21-32.17-81-32.17-59.81 10.64-81.2 32.17-32.23 48.13-32.23 80.3 10.83 58.77 32.23 80.3 48.46 32.17 81.2 32.17zM2110.38 498.49h26.55v259.38h-25v-41.54c-19.86 31.67-50.53 47.67-92.3 47.87-30.16 0-54.91-9.62-74-29.12-19.34-19.51-28.88-44.84-28.88-76.25V498.49h26.3v160.34q0 36.85 22.43 59.27c15 14.95 34 22.55 57.23 22.55 26.55 0 47.69-8.11 63.67-24.07s24-36.73 24-62.06zM2178.26 716.33v-2.53l16.5-12.42h2.58c14.69 24.32 43.31 39.27 75.53 39.27q29.77 0 48-12.92c12.12-8.61 18-20.27 18-34.7 0-13.18-7.48-25.08-13.67-32.43-3.35-3.8-8.76-7.85-16.75-12.16a177.76 177.76 0 00-17.79-8.61c-4.12-1.52-11.34-4.3-21.91-8.61-3.35-1.27-6.19-2.28-8-3-19.59-8.36-30.94-14.19-44.6-24.82s-20.88-25.59-20.88-43.57c0-20 7.73-36.48 23.2-48.89s35.32-18.75 59.55-18.75a104.67 104.67 0 0148.21 11.4q22 11.79 34.8 31.16v2.79l-16.24 12.41h-2.32c-15.73-22.8-37.64-34.2-65.48-34.2-33 0-55.43 16.47-55.43 41.8 0 23 17.53 35 51.3 49.39 31.71 12.92 52.33 22.55 61.87 29.13 20.37 14.19 30.68 33.19 30.42 57 0 21.53-8.25 38.75-25 51.67s-38.67 19.5-65.74 19.5c-41.49-.04-73.72-15.99-96.15-47.91zM2420.68 636.54C2422.74 668 2434.08 693 2455 712s45.89 28.63 75 28.63c18.3 0 36.35-4.06 54.65-12.16 18-8.11 32.23-19 42.28-32.93h2.84l15.72 12.92v2.78c-12.11 16.47-28.61 29.39-49.75 38.76a156.87 156.87 0 01-65.22 14.18c-37.64 0-69.86-12.41-96.42-37.23-26.55-24.57-39.95-57.5-39.95-98.28 0-39 12.37-71.44 37.12-97.53 24.49-26.09 55.94-39 93.83-39 41.25 0 73.47 15.2 96.68 45.35 20.88 24.06 31.19 53.44 31.19 87.64a64.49 64.49 0 01-1 11.4zm32.74-94.23c-19.08 18-29.91 41.29-32.23 70.42h204.69c-2.06-22.55-9-41.54-21.14-57.25-17.79-26.6-44.34-39.77-79.66-39.77-28.87 0-52.84 8.87-71.66 26.6zM1337.86 1129.2c-26-26.09-39.19-58.26-39.19-97s13.15-70.92 39.19-97 58.77-39 98.73-39a148.61 148.61 0 0162.64 13.42c19.08 9.12 34.55 21.28 46.66 36.48v2.53l-16 12.41h-2.58c-23.46-27.61-53.62-41.54-90.22-41.28-32.74 0-59.55 10.63-80.43 32.16s-31.46 48.39-31.46 80.81c0 32.17 10.57 58.77 31.46 80s48.2 31.92 82 31.92c37.38 0 66.77-13.68 88.68-41.29h2.58l16 12.41v2.54c-12.11 15.2-27.58 27.35-46.66 36.22a144.94 144.94 0 01-62.64 13.68c-39.73 0-72.73-12.92-98.76-39.01zM1778.51 902.49h26.55v259.39h-25v-41.55c-19.85 31.67-50.53 47.63-92.29 47.88-30.16 0-54.91-9.63-74-29.13-19.33-19.51-28.87-44.84-28.87-76.25V902.49h26.29v160.34q0 36.86 22.43 59.28c14.95 14.94 34 22.54 57.23 22.54 26.56 0 47.69-8.1 63.68-24.06s24-36.73 24-62.06zM1846.4 1120.33v-2.53l16.5-12.41h2.57c14.7 24.32 43.31 39.26 75.54 39.26q29.77 0 48-12.92c12.11-8.61 18-20.26 18-34.7 0-13.17-7.47-25.08-13.66-32.42-3.35-3.8-8.76-7.86-16.76-12.16a174.46 174.46 0 00-17.78-8.61c-4.13-1.53-11.35-4.31-21.92-8.62-3.35-1.26-6.18-2.28-8-3-19.59-8.36-30.93-14.18-44.6-24.82s-20.88-25.58-20.88-43.57c0-20 7.74-36.48 23.2-48.89s35.32-18.74 59.55-18.74a104.61 104.61 0 0148.21 11.4q22.05 11.78 34.8 31.15v2.79l-16.24 12.41h-2.32c-15.72-22.8-37.64-34.19-65.48-34.19-33 0-55.42 16.46-55.42 41.79 0 23 17.53 35 51.3 49.39 31.71 12.92 52.33 22.55 61.87 29.14 20.36 14.18 30.67 33.18 30.42 57 0 21.53-8.25 38.75-25 51.67s-38.67 19.51-65.73 19.51c-41.52-.05-73.74-16.01-96.17-47.93zM2205.85 1132.75l9 16.71-1 2.54c-13.4 10.64-29.13 16-47.43 16.21-45.63 0-73-27.61-73-77.51V924.78h-46.4v-22.29h46.4v-80.8l23.72-3.3 2.06 1.52v82.58h85.59v22.29h-85.59v165.41c0 36.22 16.24 54.46 48.73 54.46 15.2 0 26.81-4.05 35.31-12.41zM2362.68 1168.21c-40.22 0-73.47-13.17-100-39.26s-40-58.52-40-96.77 13.4-70.67 40-96.76 59.8-39.26 100-39.26c40 0 73.47 13.17 100 39.26s40 58.51 40 96.76-13.41 70.68-40 96.77-60.04 39.26-100 39.26zm0-23.56c32.74 0 59.55-10.64 80.94-32.17s32-48.13 32-80.3-10.57-58.76-32-80.3-48.2-32.16-80.94-32.16-59.81 10.63-81.21 32.16-32.22 48.13-32.22 80.3 10.83 58.77 32.22 80.3 48.47 32.17 81.21 32.17zM2941.25 925c18.31 19.26 27.33 44.84 27.33 76.5v160.35h-26.3v-158.29c0-25.58-7-46.1-21.14-61.3-14.17-15-33.77-22.54-58.77-22.54-26 0-47.44 8.1-63.93 24.06s-24.75 36.73-24.75 62.06v156h-26.81v-158.28c0-25.58-7-46.1-21.14-61.3-14.18-15-33.77-22.54-58.78-22.54-26 0-47.43 8.1-63.93 24.06s-24.75 36.73-24.75 62.06v156H2552V902.49h24.74v42.56c20.11-32.68 51.56-48.89 94.1-48.89 45.63 0 79.66 22.54 94.35 59.27 8.51-18.49 21.65-32.93 39.44-43.57 17.79-10.38 38.41-15.7 61.61-15.7q47.56 0 75.01 28.84z" fill="#595a5c"/><path d="M2754.5 582.84q6.8-8.36 13.07-5.23 6.27 2.63 6.27 11.5a34.06 34.06 0 01-.27 9.4c-.52 3.14-1.13 6.27-1.82 9.41l-1.05 5.75a54.36 54.36 0 0018.29-6.28 112.45 112.45 0 0014.63-9.66 101.21 101.21 0 0010.71-9.67 61.22 61.22 0 016.53-6.27 5.77 5.77 0 016-.78q3.39 1.31 1.3 5.49-1.56 3.13-6.79 8.88a96.57 96.57 0 01-13.58 12 139 139 0 01-18.79 11.77 75.94 75.94 0 01-22.47 7.58c-1.75 2.79-3.48 5.57-5.22 8.36l-5.23 8.36a68.35 68.35 0 01-9.4 11.49 21.28 21.28 0 01-8.36 5.23q-11 4.17-16.72-5.75a26.61 26.61 0 01-4.18-14.11 95.24 95.24 0 0111.49-50.16 35.94 35.94 0 015.75-7.31q8.37-6.27 14.11 3.66a8.92 8.92 0 001 2.61zm-1.56 42.84l-1.05-1q-8.35-4.18-8.36-15.68v-3.13a3.56 3.56 0 01.26-1.57c.18-.34-.26-.69-1.3-1a89.79 89.79 0 00-6.27 17.76q-2.08 8.89-3.66 17.76a17.72 17.72 0 00-.52 4.18 9.33 9.33 0 001.57 4.71 33.05 33.05 0 0011.23-9.93q3.91-5.75 8.1-11.5zm10.45-39.18c-1 0-1.57.18-1.57.52a46.74 46.74 0 00-8.36 17.24 7.25 7.25 0 00-.26 3.4 28.45 28.45 0 01.26 3.92c0 1.74 1 2.79 3.13 3.13a2.54 2.54 0 003.14-1.57 57.65 57.65 0 005.22-23 8.11 8.11 0 00-1-3.13z" fill="#39b54a"/><path d="M2837.05 597.47a13.54 13.54 0 004.18-.52 253.23 253.23 0 0129.52-6.8 251.21 251.21 0 0029.52-6.79 16.16 16.16 0 014.7-.52 4.51 4.51 0 014.7 3.66q2.09 4.69-2.09 6.79a32.33 32.33 0 01-6.26 2.09q-8.37 2.08-16.46 3.66c-5.41 1-10.89 2.27-16.46 3.65q-7.32 1.57-15.41 2.62t-15.42 2.61q-5.75 1.56-6.27 6.79l-9.4 42.29-17.24 73.67-17.24 78.37q-1.05 5.74-3.66 17t-6 22.21a77.75 77.75 0 01-8.36 18.8q-5 7.85-10.71 7.32a8.69 8.69 0 01-5.22-2.88 5.24 5.24 0 01-1.05-5.48l1.57-3.14a67.75 67.75 0 0011.75-23.51q3.41-12.54 6-25.07 5.24-23 9.93-45.72t9.93-46.24q5.22-24.57 10.45-48.59t10.45-48.59a5.78 5.78 0 00.52-2.61 15.8 15.8 0 01.52-3.66 13.57 13.57 0 00-6.53.52 36 36 0 01-5.49 1.57 43.4 43.4 0 01-7.83 1q-4.18 0-5.75-3.13a4.58 4.58 0 011-5.75 33.44 33.44 0 016-4.7 8.25 8.25 0 017.58-.52 8 8 0 006-.26q2.86-1.3 5.48-2.35 1.05-.52 2.09-4.18 2.63-10.46 4.7-20.38t4.18-20.38q4.71-23.5 10.71-46.5t12.28-46.5q4.18-14.1 7.84-28.47t8.36-28.48q4.17-12 8.88-23.77t9.93-23.77q3.13-6.78 6.79-13.06t7.84-12.54a34.71 34.71 0 015.75-7.32q3.65-3.13 7.05-2.35c2.26.52 3.92 2.18 5 5a19.85 19.85 0 011.31 5.74 49.75 49.75 0 00.78 5.75 56.36 56.36 0 01.26 14.37 143.13 143.13 0 01-2.35 14.37q-7.32 32.91-16.46 65a648 648 0 01-21.68 63.48 218.23 218.23 0 01-13.26 28.8q-7.58 13.59-14.89 27.69a48.16 48.16 0 00-3.66 6.53 29.3 29.3 0 01-4.18 6.53 40.37 40.37 0 00-6.27 14.11q-2.12 8.36 2.05 12.54zm7.32-48.07a821.16 821.16 0 0041.79-99 551.43 551.43 0 0024.56-99 5.87 5.87 0 00-.26-1.82l-.79-2.36q-5.22 4.71-11 16.72t-11.23 25.87q-5.44 13.83-9.64 27.19t-6.27 20.64q-6.8 25.08-12.8 49.9t-12.27 49.89c-.71 2.8-1.23 5.06-1.57 6.8a26.4 26.4 0 00-.52 5.17z" fill="#39b54a"/><path d="M1337.59 1430.15c2.24.46 3.82-.13 4.88-1.57-1.54.66-3.99-.11-4.88 1.57zM1339.84 1425.38c1.36-1 4 .08 4.89-1.58-1.79.25-4.27-.58-4.89 1.58zM1355.78 1426c2.15.08 1.55-1 3.82-2.24-1.34-.45-2.11.06-3.17.07-.7.92.15 1.23-.65 2.17zM1419.26 1435.12l2.79.53c.41-1.53 1.88-1.11 2.44-2.37-2.39-.59-4.14.03-5.23 1.84zM1348.91 1422.14c-.23 1.22 3.91.86 4.25-.49-.72-1.18-1.48.11-3.57-.55.14.53.25 1.06-.68 1.04zM1426.92 1433.18c2-.73 2.66.34 4.17.8.27-1.35-.79-2.23-2.76-2.8zM1385.28 1418.28c0 1.36 4 .4 4.23-1.56-2.24-.92-2.17 2.19-4.23 1.56zM1448.13 1428.8c.86-.15 2.06-1.17 1.74-.21 1.45.39 1.6-1.69 2.5-2.33 1.48.93 3.49.83 5.9.65-1.39-2.55 2.31-3.55 4.69-5.3-1.63.45-3 1.39-5.24.63 1 1.74-.36 1.34-2.18 3a2.73 2.73 0 00-1.72-.92 4.16 4.16 0 01-4.22 1.41c-.98 1.15-1.84 2.32-1.47 3.07zM1392.67 1416.7l2.82.48a1.05 1.05 0 011-1.53c.35-1.2-3.63-.65-3.82 1.05zM1394.11 1405.52a5.91 5.91 0 004.3-2.66c-1.8.36-5.13 1.03-4.3 2.66zM1496 1421.32c2 .49 4.57-.66 3.92-2-1.41.56-2.92.76-3.92 2zM1410.53 1400.48c1.87-.46 4.52.52 5.36-1.88-2.01.21-4.03.4-5.36 1.88zM1477.42 1402.32c2.62-.17 1.59-1.53 4.06-3.13a5.68 5.68 0 01-2.47 0c.26 2.41-3.32 1.55-1.59 3.13zM1426.45 1389.68c.12-1.26-3.74 0-5.66-1.1-.87 1.97 3.77 1.04 5.66 1.1zM1446.56 1385.57c1.74-.73 3.81-.77 5.08-2.45-2.41.23-4.55 1-7.13.89-1.51 1.26 3.58.3 2.05 1.56zM1525.35 1402.21c.28 2.2 3.33-.6 4.6-.63-.11-1.82-3.36.54-4.6.63zM1526 1394.3c-1.82-.87-2.18 1.47-4.22.15-.57 1.15-.16 2 1.2 2.58.74-2.03 3.8-1.14 3.02-2.73zM1565.53 1404c2.3.22 4.53.27 6.06-1.33-2.07.33-4.29.25-6.06 1.33zM1423.68 1371.9c1.69.8 2.38-.36 3.94.18 1.52-1.51-.29-1.9-2.41-2.19zM1442.49 1375c2.13.87 3.4 0 5-.18.15-1.24-4.6-1.73-5 .18zM1435.67 1369c.53.21.82-.07 1.1-.37 5.2.18 8.74-2.94 13.79-3.07 1.9-1.84-.19-2.41.62-3.91-3-.16-1.42 1.72-3.39 2.19-2.49-.17-1.46-1.39-3.54-.71.81 1.78-2.58 2.36-3.81 3.9-1.89-.78-3 0-4.64-.32-2.13 1.47 2 .84-.13 2.29zM1553 1389.19c-1.31-.07 1.55-1.77 2.29-1.74.39-2-2 .86-3.14-.21-1.85 1.41-.15 1.76-.62 2.76a29.87 29.87 0 004.9.07c1.03-1.46-1.98-1.31-3.43-.88zM1382.18 1353.51c2.22 0 4.85.87 5.89-1.33-2.07.31-4.44-.08-5.89 1.33zM1380.43 1351.47c-.24 1.42 3.51.13 4.07-1-2.23-1.34-2.5 1.04-4.07 1zM1389.56 1351.27c1.08-1.26.07-1.78.5-2.81-1.1 0-1.82.71-3 .66-.22 1.1.94 1.7 2.5 2.15zM1559.26 1386.73c.72 2.06 4.58-.59 6.67 0 .53-2.61-4.87-.73-6.67 0zM1357.84 1338c1.91-.24 4-2 6.15-4.81-2.09 1.48-4.63 2.17-6.15 4.81zM1580.71 1382.93c-.44-1.06-3.79-1.67-4.89-.1.41 1.01 3.94 2.06 4.89.1zM1428.24 1349.05c2.45.63 8.19-2.52 4.19-3.28-.8 2.29-2.88 2-4.19 3.28zM1477 1357.19c1.22 1.6 6.3 0 7.71-2.44-1.34-.08-1-.68-.6-1.3-3.29-.71-4.11 3.9-7.11 3.74zM1393.58 1337.47a7.18 7.18 0 007.08-1.63c-2.07 1.16-5.43-.31-7.08 1.63zM1591.42 1381.05c.85-.14 1.7-.27 1.35.35 2.82-2.45 7.09-1.35 9.93-3.79-5.05 1.51-9.09-1.53-11.28 3.44zM1453.38 1342.41c2 1 2.36-1.33 3.45-2.21a5.7 5.7 0 01-2.55.07c.2.56-.15 1.28-.9 2.14zM1603.79 1377.33c-.8 1.53 1.84 0 2.71.75-1.87-1.74 1.85-.64 3.17-2.63-2-1.41-2 2.06-4 .65-.49.69-1.02 1.37-1.88 1.23zM1610.61 1376.29c3.73-.39 5.53 2 7.76-.2-3.83-.22.05-2.43-3.5-2.72.86 2.33-3.03 1.27-4.26 2.92zM1448.43 1328c2.8-.47 6-2.63 2.87-3.5-1.65 1.71-2.65 1.7-2.87 3.5zM1629.18 1371.47c2.76.93 4.45-.9 6.8-1 1.41.48.39 1.59-.75 2.73 4.16-.1 2.66-3.33 8-4.25-1.64-1.12-1.49-.46-4-1.12-1.91 1.87 1 .18 2.26 1.22-3.99 1.14-8.81.09-12.31 2.42zM1554.65 1341.28a5.54 5.54 0 005.45-3.35c-2.51.51-5.27 1.31-5.45 3.35zM1508.31 1328.53c2.1-.51.86.25 2.82.63.63-1.05-.31-1.63-.45-2.44-1.08-.06-1.63 1.1-2.37 1.81zM1561.77 1317.74c2.57-.39 5.07-.92 6.94-3-2.11 1.19-7.07 1.16-6.94 3zM1509.92 1289.53c1.72.48 2.91-.26 4.45-.15 1.71-1.21-3.67-.44-2-1.64-1.08-.07-1.65 1.08-2.45 1.79zM1472.3 1280.76c2.67.11 4.64-1.33 6.36-3.39-2.09 1-6.56 1.86-6.36 3.39zM1624.4 1312.23l2.75.78c0-.54 0-1.07.89-.93.66-1.26-3.24-1.22-3.64.15zM1520.75 1278.45c3 .37 4.94-1.6 8.19-.47.72-1-1-1.42-1.51-2.13 1.34-1.07 4.33-.58 3.64-2.12-1.55-.12-2.28 1.77-4.19.81-.07 2.6-4.12 1.66-6.13 3.91zM1632.42 1302c.94-.25 2.16.26 3-.35 1.48-1.36-.87-2.34-2.55-1.91-2.34 1.31 1.86 1.01-.45 2.26zM1553.83 1267.88c.87 1.59 8.69 0 8.16-2.13-2.62.96-4.99 2.62-8.16 2.13zM1544 1257.77a5.23 5.23 0 005.6-2.2c-1.82.81-4 .74-5.6 2.2zM1584.93 1265.55c2-.25 4.31.14 5.81-1.51-2.09.08-4.2.14-5.81 1.51zM1606.85 1262.87c1.57.26 2.63-.9 4.2-.65.41-.7-1.37-.87-2.35-1.23zM1615.25 1259.77c2 .82 3.1-.77 4.9-.46.44-.91-4.26-1.45-4.9.46zM1715.12 1286.23c.53-.36.18-.52-.2-.68.65-.5 1.62 0 2.5.17 1.23-.7-.05-2.52 2.34-2.3 1.58-1.65-3.24.29-1.57-1.09-1.73.58-6.67 3.03-3.07 3.9zM1720.7 1282.5c1 .52 1.63 0 2.29-.51 1 .26 2 .52 1.55 1.09 1.07.14 1.74-1 2.56-1.64l-3.38-1c-.72 1.44-2.17.86-3.02 2.06zM1735.84 1286.05a6.6 6.6 0 004.4-1.59c-1.9-.89-3.18.26-4.4 1.59zM1648.81 1256.35c2.65-.21 1.6-2.51.26-2.95-2.94.71-.16 1.87-.26 2.95zM1642.78 1253.48c3.24-.19 7.93-.29 8.4-3.11-2.68 1.39-6.31.01-8.4 3.11zM1652.76 1255c1.84-.78 4-.62 5.62-2-2.07.09-3.9.87-6.07.68-.31.58 1.07.72.45 1.32zM1664.6 1258.44c4.89-1.79 6.51-1 1.93-3.64-2.12 1.53-1.53 2.47-1.93 3.64zM1752.89 1282a6 6 0 005.75-1.15c-2 .07-4.18-.45-5.75 1.15zM1781.88 1279.36c4.86-3 10-2.42 12.4-5.59a50.71 50.71 0 00-12.29 3.79c-.7-.33.31-1 .78-1.57-4.25-.41-3.59 2.3-.89 3.37zM1698.59 1247.36c3.37.22.24-2.82 2.4-2.32-.53-2.21-3.64 1.78-2.4 2.32zM1701.2 1245.7a5.55 5.55 0 005-2.16 6.85 6.85 0 00-5 2.16zM1807.67 1271.75l2.66.93c1-.76.23-1.21 1.3-2-1.28.53-2.85-.08-3.96 1.07zM1743 1246c.64-1-1.07-1.45 1.08-2.71-2.89.14-5.42 3.33-1.08 2.71zM1816.69 1200.32c3.44 1.49 5.09-1.28 5-2.65-1.8.33-3.38 1.58-5 2.65zM1877.58 1191.5c2.87.86 1.9-2.1 5.34-1.19 1.51 1.09-2.12 1.25-2.66 2.16a4.42 4.42 0 005.06-2.53c-1.61.13-2.31-.13-2.68-1 2.24-2.13 5.39.07 7.61-2.24-1.41.19-2.75.79-4.42-.36a9.18 9.18 0 01-8.44 1.31c.23 1.27 3.26 2.08.19 3.85zM1900.27 1187.25l2.68 1c2.06-1.55 2.29-.91 3.23-2.53-2.42-.87-5.19 2.53-3.76-.19-1.76-.53-2.01 1.37-2.15 1.72zM1909.67 1187.72c-.24-.9 1.67-2.08 3.09-3.21l-2-.77a1.89 1.89 0 01-1.76.58c.21 1.29.8.81-1.48 1.94 1.26.42.75 1.07 2.15 1.46zM1919.57 1187.78c1.77-1.57 4-.75 5.79-2.16-2.76-.44-5.09 1.51-8 0-.87 1.68 1.06.78 2.21 2.16zM1928.61 1183.09c-1.61 1-2.09 1.91-.17 2.46a5.52 5.52 0 002.29-1c-.17-.55-.92-1.04-2.12-1.46zM1930.6 1183.87c1.26.41.75 1.06 2.12 1.46 1.07-.67.28-1.54 1.62-1.26.53-.66-1.21-1-2.11-1.46zM1933.74 1180.66c-.23.76 4.89 2.23 6.28.56-2.13-.37-4.34-1.22-6.28-.56zM1969.34 1179.39c1.19-1.46 2.65-1.29 4-2.25-1.63-1.16-2.78.65-4.4-.48-1.09 1.07-2.18 2.15.4 2.73zM1988 1176.22a5.09 5.09 0 004.85-.53l-2.63-1.11zM1999.52 1175.29c2.48.14 4.91-.11 7.37-.12 1.84-1-4-1.18-2.16-2.19-1.57-.19-1.11.71-1.67 1.22-1.15.53-2.55-.51-3.54 1.09zM2006.87 1170.66c1.5.45 2.7-1.27 4.2-.81-.49-1.25-2.14-1.24-4.49-1.24-.98.8 1.78 1.19.29 2.05zM2021.51 1174.25c3.37-2.36 7.27-.85 10.89-1.19 2.08-2.38-4.79-1.86-6.58-3.45-.28 2 .67 2.07-3.28 3.14-2.82-1.18-2.61-2.29-5.77-1.8-.23 2.05 1.23 2.23 4.74 3.3zM2021.53 1169.74c2.69.18 5.2-1 7.92-.53-.35-.93-5.94-1.73-7.92.53zM2034.05 1166.62c1.1.55 2.06.09 3.16.7 1.54-1.21-1.79-1.88.22-3.15a5.82 5.82 0 00-3.56 1.08c2.71.82 2.61-.01.18 1.37zM2051.63 1164.48c1.12.78 2.12.5 3.17.77-.59-.76.84-1.69-.89-2.35-.04 1.27-.78.48-2.28 1.58zM2262.85 1158.2c3 1 6.08 0 9.13-1.35-2.65-.45-5.29-1.35-7.94-1.44-.9.95-.68 1.86-1.19 2.79zM2322.06 1150.54c1.39 1.38 2.86-.21 4.27.3.95-.99-3.14-1.79-4.27-.3zM2384.28 1151.73c-.05 1.37 5.17 1.46 7.32.14-2.42-.55-4.89-.08-7.32-.14zM2414.13 1152.63c2.95-.92 8.3-.89 9.33-2.24-2.87-.11-8.26.23-9.33 2.24zM2474.17 1150.76c2.17.89 4.48.2 6.67.65.27-1.07-4.64-2.12-6.67-.65zM2536.93 1157.82c.3-.79 1.88-1.51 2.17-2.31a6.06 6.06 0 00-3.75.52c1.1.62.39 1.16 1.58 1.79zM2721.94 1288.19c4.28 1.5 9.54-1 13.82.53-1.63-2.84-9.43-1.07-13.82-.53zM2736.58 1287.78c1.61 1.3 3.57 1.25 5.79.12a12 12 0 00-5.79-.12zM2651.62 1158.66c.6-.51.69-1.08-.26-1.76a41.08 41.08 0 009.81.34 29.07 29.07 0 00-12.1-1.27c2.13 1.03 1.27 1.75 2.55 2.69zM2670 1165.46c.12-1 3.09-1.76 1.24-3-2.48-.21-2.94 1.73-1.24 3zM2665.87 1158.43c-.75.5.79 1.25 1.47 1.89 1.73-.51 2.51-1.12 2.84-1.78-1.28-.75-3.11 1.13-4.31-.11zM2811.69 1167.26c2.1.91 3.46-.49 4.7-1.1a6.2 6.2 0 00-3.81.17c.47.41-.46.67-.89.93zM2822 1164.14c1.42.82 4.12-1 4.21-1.53-2.59-.4-3.92.28-4.21 1.53zM2832.24 1167.68c5 1.69 10.45 1.49 15.77 2-.69-1.77 2.48-.93 4.91-1.63-7.27-1.05-12.57.18-20.68-.37zM2850.62 1169.38c1.92 1.25 4.57.14 6.9.1a7.54 7.54 0 00-6.9-.1zM2859.91 1169.89c2.4.41 4.57 1.53 7.19 1.22-.1-1.21-4.35-2.54-7.19-1.22zM2865.76 1173.34a14.75 14.75 0 015.56 2.35c2.07-1.15 3.3-1 2.25-3.14-1.15 2.18-5.13-.02-7.81.79zM2875.3 1155.26c-1.22 1.39 3.32 1.33 4.83.82-.75-1-1.82-1-2.71-1.51-1.31.3-.99 1.34-2.12.69zM2899.55 1172.38c-.69.11-.47.38-.21.66l1 .87c2.15-1.31 7.93 1.08 12.19-.4-.68-.47-.7-.82-.26-1.1-3.1.41-5.86-.18-9.07.57-2.48-2.14 1.77-1 2.09-2.45-1-1.32-3.49 1.6-4.53.29-1.1.23 1.86 2.81-1.21 1.56zM2886.38 1156.43a29.68 29.68 0 0012 .27 51.7 51.7 0 00-12-.27zM2915.6 1173.68c2 .19 1.24 2.47 4.11 2.82-.62-1.5.17-2.21 3.32-2.26-2.14-1.16-4.83-.74-7.43-.56zM2920.6 1172.07c2.54 1.22 5.78.47 8.88.1-3.97-1.17-5.05-.17-8.88-.1zM2947.6 1176.84c.92-.41-1.18-1.43 0-1.78-4-.89-9.1 1.63-12.4-1.08-1.2 3.68 8.93.88 12.4 2.86zM2934.49 1172.41c3.82 1.81 8.75.52 13.34.21-3.77-1.97-8.83-.35-13.34-.21zM2945.91 1169c-1 1.7 4.4.69 6.22.54-1.67-1.27-4.45.54-6.22-.54zM2947.59 1171.51c3.23 1.11 6.23 2.82 10.51 1-3.95.92-6.54-1.95-10.51-1zM2964 1177.32c-3-2.26 1.75-2.89 3.83-1.71 1.15 1.61-2 1.43-3.83 1.71 1 1.9 3.44-.08 4.51 1.62 2.14-2.75 11.26-4.47 15.39-5.06.66-2.39-8.79.26-9.6 1.6.28-2-4.39-1.28-2.13-2.9-5.24 1.19-9.88 3-17.23 5 2.45 1.58 5.69.84 9.06-.26zM2981.48 1176.94c-.83.42.59 1.3 1.17 2 1.68 0 3.76-.89 5.26-.35.43-.51-.32-1.26 1.23-1.54-1.06-.55-2.25-.82-3.33-1.38-1.96.58-1.4 2.88-4.33 1.27zM2987.63 1181c1.88.2 6.36.16 3.86-1.7-2.49.33-2.15 1.24-3.86 1.7zM2992.73 1177.79c-1.69 1.36 2.64.66 3.06 2 1-1.15.36-1.34 3.15-1.49-1.59-1.37-4.26-.02-6.21-.51zM1312.11 1435.35c-1.27-.37.63-2.1-2-1.91-.45 1-1.51 1-1.91 2 4.19-1.64 2.14 6.13 3.57.4 4.59-1.68 8.67-4.15 14.17-4.46 1.14-2.19 2.14-2 3.82-1.21.18-.58-1.2-.53-.78-1.23 1.55-1.45 1.37.91 3.56.47-.49-1.66.7-1.91 1.86-5.39-2.25.23-3.32 2.39-4.78 3.87-2.65-1.08-3.48.73-4.86 1.64-5.22-1.38-9.36 2.37-12 1.93-1.41 2.3 4.15 1.13 5 .59-1.01 2.34-4.64.87-5.65 3.3zM1364.32 1428.46a18.64 18.64 0 008.36-3.21c-2.28.11-1.35-1-3.19-1.07.62 3-3.39 2.35-5.17 4.28z" fill="#39b54a" fill-rule="evenodd"/><path d="M1377.56 1423.78c1.53-.58 1.65-1.52-.37-1.76.53-.58 1.59-.21 2.48-.15 1.57-1.47.53-2 1.38-3.18 3.19-1.12 6.67-1.73 9.15-4.12 5.68 1.78 7.93-2.53 12.35-3 1.17 2.59-5.44 3-4.6 5.45 5.27-3.18 10.11-2.13 15.22-6.92 2.36.82 4.06 1.64 5.67-1.23 2.17.88 2.3 2.7.28 4 1.35.58 1.69-.77 2.82-.61-1.62-.69 1.22-2.94-1.7-3.17 4.6.34 7-3.35 11-4.24-4.15 3-6.49 5.53-7.52 6 2.85 1.77 7.23-3.73 10.32-5.47 1.13 1.56 4.59-.14 6.4-1 .23-.58-1.14-.62-.67-1.28.45-.38 1.09-.36 1.45-.86.47.47-.13 1.29 1.36 1.42 4.48-1.45 8.27-4.26 12.58-6.07.5.21.33.64 1 .77-4.42 2.27-5.4 3.92-9.4 6.14 4.48.19 7.57-2.33 11.71-2.79.67-1.58-1.84.18-2.78-.56.48-1.11 1.46-1.23 2.18-1.86 2.95.11 2 2.32 4.51 1.49.75-.88-.07-1.22.79-2.13-.68-.13-1 .49-1.44.85-1.61-.33-2.62-3-2.79-.57-4-.67-.67-2.7 1.56-3.13-2.18 1.88 3.65.1 2.35 2.2 1.72.12 2-2.65 3.66-2.69 2.2.71-1.24 2.8-2.64 3.48-.9 1.29 2.16 1.26 1.27 2.56 2.36.15 3.6-2 6.06-1.59.61 1.44-1.66 1.66-2 3.59 2.88 1.2 3.63-1.89 6.39-.92.39-1.47-2.7.22-4.17-.9 1.63-.47 3.12-1.22 5-1.21-3.06-.54-2.15-1.69-2.27-3.36.43-.37 1.07-.34 1.45-.83 2.73-.12-.7 1.7 2 1.59 1.31-2.84 14.68-5.3 14.92-2.49.86-1.63 3-1.6 2.3-3 3.31.07 1.89 1.63 4.07 2.05-2.84.52-4.9 2.69-7.9 2.87 2.31.91 8.62-.91 11.73-2.59 1.36.31-.17 1.54 2 1.59 1.79-1.72 3.62-3.57 7.93-2.8-.48-1.74 1.92-2.21-.41-3.55 2.26.91 3.31-1.8 6.79-1.29-2.68-1.88 4-2.3 3.16-3.88 4.38-.21-1.39 2.62 1.86 2.75a4.84 4.84 0 014.44-2.42c.55.7.33 1.62.49 2.43-5.17 2.51-11.13 2.89-14.56 5.8 1.83.86 2.19-1.47 4.24-.16 5.34-5.79 15-2.13 20.63-7.24 8.27 1.15 19.38-5.88 24.21-3.29 2.29-.36 4.46-.95 6.81-1.18.07-2.8 4.59-2.06 7-3.42.44.48-.23 1.28 1.23 1.48-.53-1.77 3.33-2.91 3.67-1.39 5.18-3.62 12.28-2.52 17.83-5.26-2.11-.48.69-1.86 1.4-2.54 1.31.51-1.65 2.12-.72 2.73 5.77.28 10-3.16 15.08-4.64.87 2.5 7.06 1 7.52-.87 1.55.92 2.33-.17 3.79.47 1.31-4.32 14.53-2.18 19.64-6.86 6.25 2.49 12.92-5.69 18.14-2.91-1.78 0-3.26 1-4.84 1.52 1.93 1.51 6.46-2.39 11-2.64 1.87-.11 8.87.4 8.37-1.65.83-1 2.57.49 3.77.53 3.4-2.24 7.66-2 11-4.43 5 .17 14.71-2.32 22-3.79 94.67-17 189.08-33.16 284.3-46.64s191.15-24.23 287.79-30.23c1.69.74.29 1.6-.56 2.43-14.52-1.59-28.93 3.42-43.46 2.15-1 1.47-1.74 1.32-4 1.85-.61-.64 1-.33 1.69-1.09-2.32-.73-4.53 2-6.87.23-1.68 1 .45 1.82-1.05 2.79-6.38-3-16.09-1.54-24 1-6.47 0-13-.58-19.34 1.84-.78-.3-.93-.63-.64-1-9.9 2.78-24.35 1.36-30.61 4.57-1.68-.81-.29-1.25-2.39-1.23-.54.49.63.88 1.25 1.3-13.15-1.36-22.81 4.11-36.43 2.72-.88 2.37-7.64.92-10.78 1.25-5.25.54-8.63 3.21-11.29 1.64a19.69 19.69 0 01-13.65 1.15c-2.46.89 1.56 1.24-.9 2.14-.42.85-3.73-.75-2.43-1.18-2.82 2.1-6 .78-8.94 2.14-1.23-.36-.74-.86-.17-1.37-3.74 2.23-7.83 1.53-11.68 3-.82-2.52-.34-.23-3.58-1 .12.89-1.13 1.85-2.59 2-.15-.56-.84-1.07-1.94-1.53-2.24 2.91-8.36.09-13.29 3.52-1.09-.45-1.22-1-.82-1.64-6.48 1.62-22.14 2.8-23.49 4.63-3.33.78-7.08-1.07-10.09 1.78-3.44-1.28-9.22-1.31-10.27.59-21.4 1.92-40.36 6.53-62.54 8.67-1 .62-.25 1-.84 1.53-2-.7-2.46-.24-5.41-.92-11.11 4.13-28.39 2.91-41.1 8.46-1.21-.39-.76-1-2.08-1.43-5.14 1.24-10.18 2.95-15.55 3.21.48.92 2.52 3.59-2.19 5.33-1.84-1.08-.79-2.11-4-2.12-1.11-.89 2.31-2.93 3.65-1.71 1.62-2-4.36-1.65-3.51-.08-7.71-1.25-13.83 3.77-21.58 2.41-.92 2.61-5.85 2.75-9.6 1.34-1 .65-.38 1 .35 1.35-6.61 0-12.71 2.07-19.37 2-.39.66.41 1.09-.1 1.78-9.36.72-21.06 5.66-28.8 3.95-.43.44.44.62.83.89-10.16 1.43-19.8 4.62-30.43 4.62-6.55 3.08-18.69 4.3-27.64 6.06-1.85 1.24 1 1.45-.88 2.69a3.68 3.68 0 01-2.22.49c.87-4.14-7.4-.17-10.83-.49-.39 2 2.61-.22 3.76.62 1.47 1.19-2.15 1.57-2.87 2-5.17-3.44-11.69.79-17.69.37-1.83 1.28 1 1.45-.85 2.72-.63.46-1.6-.08-2.18.53-.78-.41.52-1.33 1.06-2.06a4.35 4.35 0 00-4.82 1.52c.16.68 2.32.89.69 2 1.33.4 2-1 3.52-.12-1.35 1.79-3.82.4-5 2.64-2.51-1.51-4-.13-6 0-1.07-1.52 3.74-.51 4.58-2.17-4.34-1.35 1.2-1.21 2.17-2.32-6.17-1.09-4.67 1.5-10.36 1.05-.69.88 2 .95 1.8 1.72-.43.44-1.15.11-1.76.06-.52 1.08.13 1.3 1.58 1.06-2.08 2.53-5.08 2.48-7.16 5-1.93-.26-2.9-.08-2.91-1.45-2.36.59-3.74 3.91-6.53 3.36-1.52-.36 1.22-1.74 1.47-2.51-2.16-.47-3 1.57-2.13 2.3-1.28 1.41-3.79-.55-5.06.86-.87-.51.76-1.62-1.84-1.72-1.55 3.09-9.66 5.79-10.69 3.35-2.28.82-5.09.27-6.69 2.83-4-1.86-7.17 2.39-9.48.29-1.28 4.67-10.91.55-14.32 4.8-4.89.31-9 2.53-14 2.54-1.89-.51 2.74-.83-.53-1.3-5.94 5.09-14.89 2.86-21.36 6.68 1.16.37 1.93-.22 3.11.22.64.31-.33 1.08.56 1.31-3.37.61-7.28-.06-10.57.75-.21 1 1.18.39 2 .53 1.48.91-2.55.42-2.68 2.21-.55-.81-1.24-1-2.72-.71-1.16 4.5-9.15 1.12-12.39 4.94-2.32-.29-2.7-1.16-1.16-2.6-1.94-.75-2.84.87-4.57.63-.32.7 1.39.81 2.34 1.14-.82 1.81-2.42 1.87-3.72 2.58-1.09-.41-.88-1.21.2-2.27-3.18 2.36-7.43 2.37-11.11 3.67-.9-.46.65-1.66-2-1.62-.57 4-13.07 5.1-16 7.7-2-1.23-6 .47-3.35-2-2.47.35-2.24 1.3-1.92 2.43-2.11.93-4.28-2.19-6.61.24 1.6.77 2.14-.67 3.49-.37-.55.55-.52.91-.06 1.14-5.37 1.56-11.57 1.4-15.64 5.67-.74-1.82-1.06-1.46-3.69-2.54-1.16 1.48 1.49 1.76 3 2.39-1.55 3.52-6.43.23-8.19 3.33-3.84-.14.17-2.77-2.26-3.35-1.37 1.77.28 2.62.13 4-1.45 1.8-2.72-.57-3.51.36-.82-.36.37-1.34.81-2.1-2.09.14-4.53 2-2.93 2.77-4.79-.92-3.72 1-7.61-.45-2.8 2.42-3.38 2-7.39 2.46 0 1 2.34 1.22.25 2.91l3.45.72c1.94-.59.06-2 3.16-1.05.87-.79.15-1-.65-1.28 3.29-1 13.12-5.07 12.88-1.26 1.42.42 1.63-1.66 2.54-2.28 2.48.73 1.56 2.25-.16 3.38 1.3 0 6.62-1.84 3.62-2.61 2-1.23 5-.53 6.42-3.14 1.33.44-1.46 2.18-.5 2.75 2.48.71 6.67-3.5 6.61-.23 1.72.32 1.39-1.59.44-1.63a12.88 12.88 0 016.29-.87c.24-.7-.62-1-.24-1.78 1-1 2.58-.54 3.55-1.49a2.3 2.3 0 01.24 1.78c3.94-2.81 8.63-4.07 13.54-4.88 1.67.54-1.61.6-1.54 1.93 2 .44 3-1.47 5.26-.46a7.16 7.16 0 01-6.72 1.26c-.34 3.17-7.52 1.81-10 4.57 7.38-1.42 13.32-4 19.45-5.17.7-1.55-1.83.11-2.73-.66 2.58-2.83 4.81 1.74 7.38-1.09-1.21 0-2.3.3-3.5.31.64-2.13 3-.45 3.68-2.57 1.63.13.75 1 .2 1.77 1-.14 1.6-.94 2.82-.46-.15-2.49 9.66-3.94 14.25-4.61 1.66 1.27-2.72 0-2.9 1.6a95.25 95.25 0 0122.11-6c.8.39-.43 1.34-.9 2.08 3 1 3.72-1.75 3.06-2.68 3-1.28.84 1.92 4.33 1.71 2.66-1.58-2.78-.92-1.51-2.14 4.53-1.14 8.16-4.39 13.57-3.4.65-2.75 3.1-2.25 5.65-3.76 2.23.1 1.17 1.13 3 1.36 2.81-2.37 6.4-2.92 9.87-3.73 1.31 1-2.5 1.56-3.41 2 2.83.74 6.52-1.25 8.82-3.37 2.39.22.18 1.64 2.56 1.87-1.06 1.48-3.75 1.22-3.14 2.63a47.5 47.5 0 0016.29-7.12c3.42.19-1.14 2.47 1.69 2.82 5.69-1.68 11.3-3.6 17.8-3.17 2-2.91 4.73-1.62 6.5-1.62.82-.93-1.28-1.14.35-2.25 5.06 1.17 13.56-4.78 15.32-1.87 6.62-2 16.84-2.3 21.11-5.41 4.1 1 6.84-1.81 11.14-.15 1.71-2.45 4.67-1.26 6.33-3.9 2.22.23 1.1 1.19 2.87 1.52 12.79-2.75 25.32-6.39 38.75-7.06 0-.94 1.16-2-1.08-1.55 10.91-1.24 21.92-2.2 32.12-5.82 2.32-1.36 5.62.6 8.11-.18.32-.54-1-.75-.4-1.34 3.49 0 7.92 0 12.11-2.4l3.87 1.36c10.63-4.15 22.32-4.73 33.79-5.83.25-.4-.17-.67.29-1.11 19.92-2 39-7.18 58.93-9.2 2.48-2.59 16.45-2.81 25-4.2 4.6-.75 7.92-2.63 11.72-1.46l2-1.71c2.8 2.1 7.06-1.92 11.44-.15 8.85-3.67 23-2.64 33.75-6.17l2.49 1.06c6.94-2.18 14.12-3.08 21.3-3.93s14.41-1.46 21.41-3.59c6.66 1.4 12.52-2.72 19.16-1.37 3.46-2.44 7.53-.44 11-2.59a96.45 96.45 0 0015.78-1.12c5.23-.65 10.43-1.58 15.61-2.58 11.67-.76 23.23-2.34 34.8-3.94s23.14-3.26 34.85-3.62l2.15-1.51c1-.41 1.08.52.64 1 12.27-2.06 21.29-2.54 33.72-4.74l2.33 1.24c2.33-.38.69-2.58 4.44-1.64.63.62-.92.35-1.63 1.12 1.57.32 4-.2 3.89-1.26 91.69-6.52 180.87-15.66 273.24-16.53l1.81-1c12.41 1.32 25.33-1.82 37.64.45 2.24-.37 4.34-2.62 4.62-.46a15.56 15.56 0 0110.32-.19l2.45-1.26c4.36.18 8.64 1 13.2-.11 20.79 2.79 42.62-.64 63.11 3.88l2.69-.97c3.26 1.86 9.48 1.62 11.47.23 1 .69.29 1.19 1.38 1.89 1.87-2.43 3.57-.67 5.14.21 5.75-1.68 12.3-.57 19.6 0 .88.67.81 1.25.23 1.76 1.67.48 2.33-2.26 5.29-.47.6-.28-.12-.71-.36-1.08 1.83-.46 3.27 1 5.3-.47 1.07.58.43 1-.29 1.36a24.27 24.27 0 019.47-1.06c1.27 1.88-2.06.74-3.82 1.67 7.15-1 14.15-1.22 21.23-1.88l2.46 2c-.84 1.49 1.75-.69-.83-1.48 3.45-1.44 6.26-.78 10.79-1.62.5 1.54 4.66 1.32 1.81 2.28 1.82.7 2.27-1.83 5.65.61 2.92-1.17-1.19-1.21-2-1.6 4.41-1.47 8 .59 12.42-.9.46.53-.77.82-1.44 1.19 1 .54 2.44-.46 3.21 1.15-.65-2 2.15-.52 4.51-1.82 9.31 3.73 21.81-2.08 29.66 2.73 2.5-2.84 8.48-1.59 12.19-1.8-.62 2.15-5.05 0-7.32 1.08.78.77 1.8.56 2.55 1.4-3.45.53-7.18 2.13-10.54 2.37 1-3.49-8.48-1-10.3-.73 6.2 2.46 17.14 2.51 23.87.18.44.64-1.24 1-2.14 1.45 3.6 0 10.87.79 11.7-2.22 2.32-.4 1.12 1.49 2.36 2.07 7-1.41 11.09-.93 18.88-2.62 8.73.9 17.36 2.34 27.06.16 4.94 1.23 13.51.84 17.42-.88 10.63 3 31.93-2.79 45 4.16-2.34-4.78 9.16-1.15 9.48-5.08 2.93.73 7.31-2.67 9.46.36 13.16-1.59 25.21.26 35.91 5.56 1.88-.79 3.9-1.56 3.46-2.84a6.36 6.36 0 015.12 2.46c2.28-1.21 3.69-.18 5.42 0 1.36-1.69 2.87-1.15 4.62-2.62-.8-1.09-2.47.14-3.38-.68 8.25-1 20.58 1.21 28.53 6.17 1.94-2.24 5.39-2.2 8.91-1 8.81-3.71 18.86-4.22 28.61-4.1l2.54 2.77c-.18-2.34 5.59-.54 8.49-1.2.07.49.15 1-.55 1.3 8.48.8 16.29 1.92 23.93.31 8.84 1.12 20.73 2.49 29.11.11 5.69 1.6 18.06-.13 23.27-.37 8.87-.61 16.7-.89 24-2.88-2.14-.56-1.69-1.69-2.43-2.85 2-.62 3.12.56 5.1-.06-2.51-1.33-4.24-.4-5.29-2.18-3.72 1.57-7.19-2.82-9.16-.68-1.62.31-2-1.95-3.15-2.68a100.76 100.76 0 01-11.1-1.93c4-.83 5.49-.51 11.08-2.09-6.87-1.34-15.07-2.69-23.71-3.63a155 155 0 00-26.37-1 6.18 6.18 0 01-4.24-1.73 2.07 2.07 0 00-.15 1.76 27.93 27.93 0 00-5.53-.23c-1.35-3.55-9.78-.09-13.7 1.4-1.22-1.48 1.63-2 3.66-2.72-1.74.06-3.82-1.4-3.26-2.57 3.37-.82 3.43.55 6.07-1.07-.91-1.28-3.56 1.5-4.11-.62-2.35.16-1.23 1.15-3.1 1.42a3.87 3.87 0 01-2.27-.54c.43-1.09 3.3-1.61 3.66-2.72.65-.07 1.13.27 1.84.08-2.09 1.72 3.38 1.23 5.67 1.35.86.8.05 1.21 1 2 5.41.08 7.66-3.11 12.48-2.78 0 1.32-4.79 1.5-6.67 2.36 2 .51 6.66.75 6.1-1.05 5.05 2.32 11.81.73 18.07.34-3-1.78-7.56 0-11.38.17 3.29-2.73 10.61-2.2 13.66.37 5.17-.77 10.28-1.32 14.12.85a78.18 78.18 0 0111.31-.18c3.62.27 7.15.77 10.67 1.28 7.05 1 14.05 2.15 21.64 2.07-2.28-2.34-5.86-2-7.8-5-3.53-.19-6.71-1.1-9.16-3.6-1.27.14-.84.74-1.74 1-1.44-2.81-4.88-1.39-6.88-3-.81-1.08.9-1.45 2.74-1.8-2.42-2.11-6.2-1.31-9.11-2.35-2-1.32 1.81-1.25.49-2.4-4.1-2-7.58 0-13.1-.61-.74-2.13 5.79-2.2 8.24-2.7a5.1 5.1 0 01-2.44-1.66c-.69.19 0 .7.15 1.11-2.67.31-3.42-1.37-5.2.2-.85-.8 0-1.2-1-2-4.37.27-8.08-.91-11.8-2.08q-2.66.8-1.16 2.59a7.88 7.88 0 01-4 .49 10.37 10.37 0 01-.56-4.45c4.83.63 12.85-.41 15.29-2.84 7.5.83 15.12 1.43 21.79 4.11-.71-3.06 4.27-1 7 0 .23 1.59-3-.85-4.44-.12 2.39 2.2 6.76.17 10 .55 1.79 1.43-2 1.26 1 2.08 1.64-2 9.57-.11 13.46 1.49 4.31-1.18 7.9.77 13.06 1 1.4-2.11-4-1.53-5.39-2.2 4.52-.31 15.37-.31 21.5 3.69 6-1.48 21.45 5.36 25.37 0 3.89 1.84 6.81-.63 9.82 1.23-.45 1.13-2.63.18-2.87 1.77 10.29.08 21-.94 23.67-5.19-1.71-1.55-5.13-3.55-3.33-4.92-4.3-2.76-12.39-4.28-11.94-8.73-3.16 1.2-7.11-.61-8.57 1.3.61.53 1.7.11 2.64 0 .56 1.53-.65.78-2.55 1.13a4.82 4.82 0 00-4-2.54c-1.32-1.21-.34-1.8 1.71-2.08-1.39-.61-2.93-.67-3.37.17-2.57-3.26-11.76-3.26-18-3.45-5.15-4.61-13.8-2.13-21.51-1.5l-.85-1c4.22-2.79 10.8-1.31 15.13-2.79-.72-1.23-2.27-.75-2.85-2.24-11.58 1.1-17.17-1.74-27.93-1.78-.21-.42.31-.65-.13-1.13 3.71.48 9.72.21 12.28-1-1.09-1.38-3.2-.62-4.33-1.89.1 1.55-1.6 1.48-3.36.16a2.71 2.71 0 01-1.23 2.59c-3.08-1.63-11.21-2.34-10.78.69-1.86.68.24-2.19-2.43-1.75-.08-.75 2.59-.08 2.06-1.62-2.26-.82-5.39 1.17-5 2.28-1.77.07-.57-2-1.84-3-3.54.24-2 1.7-4.28 2.22-1.85.41-1.58-1.48-.57-1.57-2.21-1.17-2.5 1-3.24 1.39-.67-.29-2.73-1.67-2.61-2.78 1.93-.9 3.12-.2 4.85-.64-3-1.94-5.56.08-5.88 1.48-4.3-.6-8.13-1.29-12 .74-2.66-1.59 1.08-1.66 0-2.87 2.6 0 5.06.28 7.61.36-1.69-1.84-1.1-3.13 1.78-3.89-1.22-1-3-.57-3.37.28.35-1.64-2.77-.74-2.63-2.78-4 1.05-7 .33-11.45-.56-.46-1.14 3.84-1 4.26.65.7-.07.51-.36.3-.65l1.45-.37c-1.83-1.7-4.72-1-7.33-1-.62-1.58 1.22-2.59.57-4.18-1.81 1.11-1.63.46-4.4 1.11-1.88-1.28-.87-1.88-1.94-3-1.71.2-1.62.82-2.47 1.21-1.38-1 .37-1.35-1.49-2.51-3.89 0-7.35-1-10.88-1.86-1-1.82 1.73-.51 3.93-1.58-1.39-1.28-4 .3-5.16-1.58-.2.55-1.74.78-1.29 1.49-8.16-3.18-18.19-2-26.47-4.83-.78.3.21 1 .63 1.59a10.22 10.22 0 01-4.81.66c-.33-5.68-12.07-1.27-16.76-3.14 3.28-4.5 9.17-1.77 14.68-2.74-2.16-1.62-6.06.06-6.09-2.51l-4.35 1.13c-1.27-.84-.71-1.33-1.12-2 1.59.34 3.77-.79 5 .4-.32-1.66 1.8-.5 2.71-1.88-1.71-3.2-6.89 2.06-8.58-1.18-3.38 1.33-6.88 2.63-10 4-2.06-1.36-.48-2 1.05-2.63-1.33-2-3.8-1.21-5.7-1.86.08 1-.81 1.73-3.43 2.14 1 .62 2.69-.27 3.32 1.39a7.53 7.53 0 01-6-1.21l-6.53 1.88c-.25-2.14 1.7-1.36-2.33-2.26-2.51-1.45 2-1.49-.16-2.87-2 3.06-5 1.44-9.66 3.38-3.38-1.22-7-1.93-10.21-3.5-3.84 2.64-7.52 2.59-12.22 3.57-2.39-1.43 2.62-1.37 2.18-2.4-5.56-.75-12.51 2.73-15.74 4.63 5.33 1.83 8.46-2.28 12.37-2.47.85.76.69 1.33 0 1.77 1.34.91 4.39-.72 3.12-1.5 4.14 3.57 16.52-2.57 22.14 2.35-5.48 3.11-14.68 1.62-20.5.11-5.3 3.91-13.61 2-21.39 1 2.8-1.63 4.49-2.9 5.72-5.23-2.1 1.09-3.44.14-5.47 1-4.19-4.6-8 .58-12.11-3.51a69.67 69.67 0 01-9.72.52c1.44.89-.67 1 0 1.78-1.77.2-3.25-.43-5.25.5-2.34-1.68 1.27-1.94 3.08-1.59-.1-1.61-7.59-.75-7.86.79-2.35-.52-5.21.44-7-1.89-3.33-.72-7.89 2.19-10.94.61-1.63-2.27 2.53-3.56 4.9-5.16-4.43-.43-7.1 2.06-12.87.64-1.76-1.63-.51-1.75-3.15-1.94-2.36.93 3.59 1.05 1.25 2a13.42 13.42 0 005.48.58c.38 1.86-.1 1.61 3.16 1.95.45.54-.89.78-1.65 1.12-1.8.34-2.59-2.3-4.33-2.14-.16.56-1.66.89-1.15 1.56-2.18.22-4-.79-6-1-.63-1 .06-1.28 1.63-1.13 1.25-.16.35.65 1.45 1.3.6-1 1.78-1.8.39-3.1-9.74 4-17.68 2.67-26.47 4-.76-.6-1.52-1.2-.78-1.55-1 1-7.66 1.92-11.77 1.53-.07-1.81 6.66-1.7 6.5-2.76 1.27 1.74 3 1.17.71-.23a82.32 82.32 0 01-18.73-.36c-1.39-2.58 6.68-.53 7.18-3-2.35-.27-2.93-1.1-4.48.3-3.73-1.46-9.45-1.53-15.32-1s-11.85 1.35-16 1.24c-1.56-1.15 5.16-1.16 2-2.53-1.56 1.79-4.71 2-7.48 2.12 1.71.58 3.36 1.35 5.32 1.08.27.39-.2.67.3 1.09-3.95.76-6.88-2.13-11.17-.14-1-.72-.22-1.19-1.33-1.93-3.26 1.22-5.75-.21-8.78.19-.9-.7-.8-1.27-.14-1.76-1.26-.7-3.08.66-4.11-.92-1.37.29-.92.81-.36 1.35-11.09-1.66-18.72-1.91-29.87-2.34-.74-.81 0-1.4 1.72-1.86-1.77-.39-3.78.17-5.51-.4-3.1.5.87 2-1.87 2.53-2.47-1.74-5.42-1.5-8.56-.47-1.54-.92.11-1.38-1.92-2.36-1.23.65.07 1.64-1.18 2.28-2.94-2.33-2.79-.2-7.37-.26-1.53-.86.12-1.38-1.92-2.29-.61.51-.74 1.08.19 1.76-4 .64-11.82-2.38-11.27-4.68-5.95.76 4.2 2.45.26 4.2-2.06-.24-1.26-1.1-3.82-2.14-3.07 1-6.2-.54-7.86 1.94-2.66-.22-5.71-.26-6.26-2.41l-3.39 1.38c1.87 2 1.05-1.37 2.93.66-2.1 2.39-10.67-.23-16.26 1 1.1-1.29.76-2.49 3.67-2.74-3.86-2.26-5.37 2.17-9.69 2.1-2.36-2.43-5.59-.78-8.58-.21-3-2.22-6.64-1.65-10.17-1.42-.62-1.56 3.26-.24 4.56-1.26-1-1.14 2-1.86 1.24-3-3.66 1.73-8.51 1.63-11.82 3.6-.88-.74-2.44-.29-4.69-1.19-1-2.12 7.3.29 3-2.46 2.07-1.2 3.54.75 5.64-.45-1.54-1.78-7.06.55-6.45-1.72-2.16 1-4.25.32-7.66 1.27.58-2.74-3.47-.41-6.33-2.32-4 1.78-7.56 1-11.41 1.89-.27 1.4 2.64 2.62 4.59 1.74-.67 2.35-5.82.65-8 .42-.42-1.1 1.36-2.08 2.25-2.25-.28-1.14-2-1.28-1.94-2.91-.62 3.06-3.68.61-7.22 2.56 1.1 1.9 2.88-.07 4.06 1.35-2.05 0-4.29 1.14-6.06-.46-.51-.7 1.08-.23 2-.89-.78-.72-2.54-.5-1.63-1.16-2.12-1.19-1.12 2.18-3.09.11.47 1.2 1.51 2.42-.6 3.41-2.92-.19 0-1.16-2.06-2.23-1.76.68-1.24 1.52-1 2.35-1 0-2-.59-3.09.11-3-1.73 2.26-2.83.15-4.49-.78.87-2 1.7-1.67 2.64-2.28 1.39-3.79-1.78-6.18.22-2.15-1-1.32-1.71-2.62-2.61-2.87 1.21-5.35.16-7.95-.26-1.77 2.28-6.19 1.33-9.36 1-1.59-.82 3.31-1.13.32-2-2.95 1.95-5.87.68-9.91.63-2.6.61.93 1.68-1 2.35-3.57.14-.41-2.08-3.23-3-1.61 0-2.29.3-2.62 1.19-5.52-4.18-12.44 1.15-18.21-1.2-2.31 2.23-3.61 1.81-7.74 3.09-1.1 0-1.73-1.41-4.12-1.23-.5-1.75 3.71-.78 5.14-1.82-3.66-1.22-6.59.1-9.34 1.28-3-.71-1.51-1.47-3.3-2.92-2.46.4-3.79-.64-5 1.14l-2.26-1.47c.9 1.89-5.62 2.41-7.95 0-2.11 2.44-3.74 1.31-6.81.71-2.58 1.14.24.42 1.06 1.43-1.52.85-2.84-.07-4.29.14-2.23-1.72-.6-1.66.31-2.73a11.35 11.35 0 01-7.64-2.77 2 2 0 011.86-.25c-.29-1.32-6-.86-8.45-1.09 6.33 1.23 5 3.43 11.15 4.31-5.93 2.72-6.39-2.3-10.81-1.88.06 1.49 4.51 3.19 3.79 4.65-1.55-1.38-5.73-1.28-7-3.08-1.79 1.4-1.94 2.89-3.51 4.31.85-2.43-2.21-2.39-4.52-3.65-1.13-1 2.71-1.71.28-2.74-1.14 1.06-1.71 1-1.5 2.68-1.61 0-3.79-1.35-2.5.57-1.81-.09-3.55-1.12-5.3-2 0-1.07 5.57.09 4.5-2.21a54.51 54.51 0 01-10 1.73c-3.76.37-6.74.08-5.3-1.92-1.82-.14-3.79 1.48-5.52.25-2.74 3.24-9.11.62-13.76 3.86-1-2.28-4.8-.85-3.42-2.82-2.06-.55-1.65 1.77-4.45 2.33-4.66-.23-9.27-1.24-14.08.77-.46-1.92-4.49-1.39-4.87-.09-1.71-1.84-3.62-.68-5.37-1.81.53 1.13 1.45 1.16 2.26 2.79a8.72 8.72 0 01-6-2.17c-3.21-.37-1.7 2-6.08-.11-.26.56.7 1.15-.72 1.7a14.57 14.57 0 017.85 1.17c-4.45-.09-8.91-.37-13.38-.24-.36-.35 0-.68-.56-1 2.08-.62 5.87.84 6.17-1.26-3.17-1.11-6 1.62-10.33-.53-.85.5-1.69 1-2.48.64-.52.56-.54 1.13.52 1.73-2.7 1.17-5.28-.18-8 .92-2.19-.67-.66-1.37-2.34-2-2.37.91 1.28 1.69-1.91 1.73-2.29-.87 1.43-1.72-1.74-1.7-1.72.58.24 1.14-.69 1.72-9.43-4-20.86.37-28.55-1.47-1-.68 1.73-1.39 1.28-2.08-3.44-.62-7 2.56-10.37-.25-.49.58-.49 1.15.57 1.72-1.25 1.26-2.44.43-3.68 1.4-1.58-.56-.26-1.14.65-1.72-1.81-.89-3.67.22-5.49-.29-.62.46.58.91 1.19 1.36-1.24 1.2-2.44 0-3.67.72-.21-.57.8-1.15-.58-1.71l-2.46 1.39c-1.71-.67-.19-1.37-2.41-2a146.31 146.31 0 01-17.7 1.2l1.81 1c-1.62 0-3.26 1.56-4.87.73-1.59-.56-.29-1.14.61-1.72-3.61-.83-9.95 1.34-11.58 2-1-1.4-2.46-1.67-4.86-.52 3.16 1.2.38 1.35-1.22 2.1 5.54-.91 8 1 14-.14.63-.67-.58-.25-1.2-.65 1.22-1.59 2.42.77 3.66-.77 2 1.67 2 1.22 4.85 2.7-7.15-1.44-16.68 2-21.89-.09-.37.36 0 .7-.6 1.06-2.32.8.49-1.33-1.83-1.65-3.63 3-7.28 1.41-10.95 1.06-1 2-3.5 1.91-6.06 1.6.82-1.41 2.92-2.86 1.16-4.17 1.78-.5 4.89-.1 4.87-1.55-2.34.34-2.43 0-3.68-1.24-.93 1.59-2.56 1.31-3 2.51-2 .61-4.08-.61-6.09.9-2.56-2.4-7.92-.8-12.17.44-.25-2.09-2.4-1.82-5.51-.15-.49-.56-.49-1.14.58-1.75-4.1-.8-8.1 1.7-12.19 1.13-1.06.72 1.64 1.32.07 2.06-1.19 1-2.49-1.67-3.66.13-1.1-.54-1.17-1.11-.67-1.7-2-.23.25 1.89-3 1.14-1.58-.63-2.19-1.3-1.29-2-3 1.08-8.69-.33-9.7 1.88-1.74-.58-.26-1.36-2.52-1.91.13 2.13-3.16.54-3 .53-4.27.58-5.42 3.4-10.3 1.66-.65 2.07-5.77 1.44-8.45 1.89-.25-.56.71-1.19-.7-1.68-1.7 2.37-4.84.4-7.78 2.88-.83 1.5 3.28 1.63 4.32.78 1.12.22-2.66 1.76-3.56 1.6-1 1.71 2.77.21 3.68.46.67.53-.94 1.21-1.72 1.83-.95.25-3.65-1.92-6.06.37-1.64-.71-3.17-1.41-2-2.29-2.31-1.08-4.42.89-6.75-.63-.48 1 .29 2.09-2.29 2.21 1.11-2.63 5.52-4.73 10-6.47-2-.1-4.12-.73-6.18-1-.84.74-1 2.15-3 1.22-.56.61.18 1.14-.5 1.75-2.64 1.11-1.63-.7-4.38-1.45.77 2.84-9.94 4-11.56 1.06.17 1.7-2.58.16-4.13 2 2.12 1.1 4-.79 6.13.32.07 1.28-5.23.4-7.3.44-.14.69-.72 1.42-2.27 2.21-1.38.89-1.53-1-.11-1.38-2.19-.38-2.07 1.93-.42 2.44 1.38-.59 2.86.19 4.16-1.29.66.65.76 1.34 1.39 2-2.75 1.19-5.77-.78-8.49.56-.79-1.28 3.78-4.21-.34-4.13.93 1.79-.75 1-2.9 2-.58-2 2-1.09-2.6-1.85-.09 1.35-.27 1.82-2.82 2.66-1.3-2.51-4.43 1.32-7.39-.74 7.28-1 12.73-3.8 21.16-2.75-3.28-2.12 5.47-1.42 4-4-1.07-.6-2.06-.18-3.12-.84-.9 2.33-6.22 1-7.39-.2 2 1.81-2.64 2-.29 3.82-1.63 0-3.16 1.31-4.87.42-1.35-1 4.9-.31.47-1.77 1.09-1.64 2.51.65 3.59-1-1.22-.48-.62-1.1-2-1.56-3.29 2.59-4.51.91-5.58-.57.25 2.88-7.71 1.69-11.4 2.71-1.13 1.41.3.88 2 1.56-3.78 2.67-10.75 1.14-12.53 3.5-2.57-.59.15-1.63-.85-2.35 3.23-.37 6.43-1.14 9.72-.84 1-1 .93-1.92-.25-2.74-.74.78-1.59.52-2.42.2-.24.49-.48 1 .11 1.38-3.65-1.76-12.51 1.16-14.39 3.32 1.06-3.6-4.63-1.27-6.51-3.6a3.71 3.71 0 01-3 .61c-.89 2 2.8.1 3.81 1.06 1.23 1.32-2.16 2.58-5 4.92-3-1.63 2.32-2.19 2.07-3.64-3.22-1-2.37.39-5.37 1.51 1.14.7.58 1.56.88 2.34-1.37.65-3-.81-4.23.71 2.79 1.15 5.1-2 8 .35 2.88-1.7 5.8-3.18 8.87-3.19 1.18.75-2.69.82-3.58 1-1 1.33 3.33 1 2.44-.21 1.72 6.62-17.19 2.66-26.36 5.73 1 .38 1.92.76 1.37 1.26 1.53.89 2.72-1.3 4.29 0 .47.93-4.14 2.62-6 1.2 1.49 1.5-3.34 4.12-5.8 2.58-.79-.31 3.39-1.8 4.75-1.11-1.13-1.94 1-2.11 1.38-3.92-2.75-.55-2-1.11-5.1-1.63 4.23-1.15 7 0 11.93-3.11-2.81-1.38 0-1.63-4-2.42.26 1.14 2.7 2.07-.81 3.53-4.05.41-8.21 0-12.16 1.1 1.63.51 2.29 1.13 1.46 1.92a32.39 32.39 0 005.49-.15c0 1-2.23 1.79-3.39 2.37-1.3-.35-.78-.86-.17-1.37-3.61-.57-.6 2-4.66 1.88-.39-1 1-2.19.23-3.16-3.87 3.06-12.45 1.45-16.59 4.61-1-.7.43-1.67-2.12-2.2-2.11 1-4.46.37-6.43 2.45 1.69.5 2.41 1.11 2.71 1.78-2.72 1.12-5.62.81-8.28 2.29-1.61-1.2 1.38-4.17 4.54-2.58-1.53-.87.59-2.14-1-3-2.09 2.69-5 2.06-9.85 4.21 1.61 1.25 2.74-1 4.28-.12.16 1.69-3.51.67-5.19 2.3-1.25-.43-.69-1.08-2.06-1.51-.72 3.85-7.09.7-10 2.84-2.15-2.32 4.32-2.33 4.33-4-.65-.25-1.19.29-1.76.55-2.81-.38 1.29-1.53-1.52-1.92-2 1.29-5.43.53-4 2.18-1.79 1.73-4.14-.23-6 .67-.64-.85.22-2.26 2.21-1.64-.89-2.3-7.45 2.8-8.69-.42l-3.31 2.45c1.61.39 1.36 1 2.09 1.5-2.19 1.09-2.49-.2-3.85-1-3.2 3.22-7.29 1.14-14 .83-3.17 2.4-11.58.69-16.75 2.93.23 1.63 2.63 0 4.4.46-.51 1.92-6.56 2.33-9.39 2.65-1.37-1.55 3.78-.52 2.7-2.11-2-.51-3.62-.81-4-1.55-1.31.88-3.54 3.31-5.29 4.89-2.64.88-2.47-1.49-4.66-1.82-1.49 0-5.61 2.64-5.48.38-4.27 2.49-9 2.61-13.67 2.88-3-.65 1.8-2.33-1.2-3-3.27 1.48 1.45 1.89-1.22 3.3-2.48 1.36-3.3-1.33-5.35-2-1.46.94-3.25.21-4.8.75.26-1-.48-1.8-2.94-2.35a1.28 1.28 0 01-1.61 1.3c-1.2 1.18 1.89-.17 2.68 1-1.35 1.48-3.17.61-4.8.76-1.07 1.09 2.54.87 3.21.55.38.76-.08 1.65-.11 2.47-2.28.44-2.63-.79-3.46 1.24-3-1.12.36-1.3.1-2.47-2.68-.53-2 1.14-2.64 2.17-2.68 1-5.66.6-8.4 1.31-.41-1 1.31-2.31 1.16-3.34-2.78-.08-5.91-2.37-8.84-.71-2.86-1.69-3.66-2.71-9.16-2.08 1.75.44 3.83.17 4.06 1.47-1.6 1.25-3.51 1-5.35 1.19-1 .86 1.17 1.21-.75 2.21 2.28-.51 7.13.63 7.21-1.12.53.73 1.35 1.43-.09 2.47-2 .51-1.89-1.67-4.12 1-2.84-.25 1.18-1.58-1.64-1.84 1 2-2.34 2.41-5.19 1.86-1.18 1.52 1.17 1.47 2.7 1-.86.81-1.94.62-2.77 1.49-.88-.68-4.61-.91-3.54-1.9-1.11 0-4.68 2.69-4.28.32-2.13-.32-2.3 3.48-5.54 3-.76-.47.75-1.29 1.41-2-3 .26-9-.75-9.61 1.52-.8.44-5.18.6-2.7-.92-5.18 1.21-11.45 4.59-12.19 8.87-1.36.36-2.83.25-4.09 1.08-2.65-.7 1.52-2.62-2-3.16 2.47-1.84 2.72-.94 4.76-.86 2.5-1.62 2.79-2.84.38-3.59-.49.44.43.63.85.91-1.65 1-3.24 2.09-5.3 1.3-1.63-.7 1.82-.45 2.06-1.78-1.94-1.13-3 1.51-4.95.18-.21 3.46-7.4 2.35-12.13 1.46-1.62 1.56-2.59 4.16 1.52 3.6-1.44-1.56 1.19-1.4 3.43-1.31.77.48-.84.8-1.71.66 1.4 1.34 7.25-.88 10.4-.81-9 4.08-24.1 5-35.29 8.43-.72-.35.35-1 .84-1.56-1.73-.2-3.39-.18-4.6 1.53-1.57-2-2.5.13-5.13-.45-2-.42 3.46-2.35 0-2.47-1.53 2.63-3.12 1.6-7.64 1.88-1.3 2.06-3.2 3.63-6.94 2.1-1.55 1.94-3.83 1.25-5.37 3.2-7.68-3.35-18 2.42-29.49 2.36.73 1.42-1.6 3.2-3.38 1.39-2.16 1.26-1.26 1.91-1.08 2.7a4.26 4.26 0 01-2.37.47c0-1.06-1.06-1.91.88-3.37-3.85-.61 0 3-4.56 1.63-.18 2.57-1.48 2-4.81 2.84-1.44-.52-.27-1.61 1-2.73-5.06 3.06-14.22 3.43-17 8.39-2.54 1.36-2.91.26-4.93.38-2-.65.85-2.34-1.56-2.88-1.85 1.37-1.1 2.15-.32 2.93-3 .29-1.89 1.19-4.29 2.38-2.34-1.37.69-4.48 3.44-5-1.39-.23-1-.85-.22-.66-4.66-1-11-1.82-16.08 3.2-2.45-.41 2.14-2.38-.87-2.66-1.44 2.34-8 1.52-11.86 2.62-.95.81-.14 1.23-1.22 2.06-.39-.51.38-1.27-1.14-1.53-2.13.6-.56.61-1.92 1.89-.64-.32.48-1.08-.45-1.34-3-.76-5.18 1-4.26 2.48a1.92 1.92 0 00-1.87.09c-.74-.3.27-1 .72-1.62-5.51 1.26-15 .92-17.66 4.27-6-.51-3.72 1.56-7.3 1-2.06 3.34-4.08 3.36-7.54 5.79 1.7.54 2.93-.16 4.48 0-1.34 1.6-3.74.27-5.16 1.61-.76-.29.24-1 .68-1.6-3.77.75-8 .3-11.78 1-.76-.3.25-1 .7-1.61-1.82.29-3.77.23-5.19 1.63-.47 4.1-14.11 2.17-18.94 6 7-1.25 14-2.78 21.1-3.7-2 1.46-4.63 1.35-7 1.83-.3 1.8 3.19-.43 4.46-.07l-2.77 2.89c-1.32-.25-.92-1-2.36-1.19-4.56 2.13-3.12 5.13-9.51 5.38-1-1 3.31-2.39 4.37-3.68-.48-.72-2.19-1.11-1.45-2.16-1 .79-2.31 5.61-7.64 5.27-1.13-.43-.83-1.24.41-2.29-2.88-.53-3.45 4-7.41 4.12-2.78-.24.94-2.19-2.19-2.33-.53.38-.16.52.25.66.48.86-3.06 1-1.58 2.58-1.14 0-5.24.59-3.69 2.06-1.46.09-2.51 1.27-4.21.74-.62-1.16 3-3.43 1.49-4.38a41.06 41.06 0 00-4.61 3c-1.91-.23-.72-1.27-3.12-1.36-3.33 1.36-7 1.83-10.51 2.84-1.52-.44 2.06-1 2.25-2.46-4.89.26-4 5-9.48 3.76-1 .63-1.47 2.74-3 2.3-1 1.3 1.84-.4 2.86.66l-1.34 1.47c-4-.27-6.94 2-11 1.62-.85-1.63 3.84-3.17 6.25-2.12a8.74 8.74 0 014.28-2.76c-1.84.65-7.41-.48-9.32 2.62-2.78-.32-.18-2.14-3-2.46-1.24 3-8.21 4.72-13.6 6.38-1.86-.8 1.64-.89 1.77-2-2.47.72-1.83-.71-4.33-1-2.68 1.86-6.19 1.8-8.74 4-5.16-.73-4 1.7-9.28 5.73 2.43-.95 4.58-2.48 7.37-2.58 1-.8.27-1.06-.56-1.31a7.63 7.63 0 014.63-1.38c1.6.16-1.42 1.41-2 1.34 1.25.79 8.28 2.09 10.14-.71 2.74 1.39 9.15-.57 12.62-2.46 1.78.56 1.44 1.55 3-.49a36.63 36.63 0 0018.67-3.41c1.15 2.19 6.54-1.29 5.69 1.33.66-.94 2.63-1.42 4.84-2.45-1.24-.37-2.06.25-3.3-.18 1-.64 2.18-1 3.21-1.61.69.43.9 1 .09 1.79 2 .65 3.21-.54 5.18.1.94-.73.11-1 .65-1.62 1.74.59 3.41 1 4.21-.74 1.17.24 2.5.9 3.31.22 1.88.23-2.47 2.09.77 2 1.24-3.14 11.78-4.65 14.69-3.47 2.41.21.29-1.2 1.82-1.93.49-.35 1.15-.3 1.61-.79 2.5.19 1.3 1.36 3.79 1.55 3-3.08 11.2-3.25 17-4.06.91-1.58 2.41-1.53 3.5-2.64-3.5-.74-1.86 1.74-5.15 1.61 1-1.4.72-1-1.43-2.16 2.94-3.09 6.75-2.74 8.44-1.35-1.12 1.59-3.69-.76-4.7 1.14 2.64-.6 4.59 1 2.86 2.55 3.71-.91 7.76-.86 11.47-1.7-.38 2.08-.14 1.21 3.06 1.42a8.15 8.15 0 01-6.33.09c-.79.91 2 .95.73 2 2-1 4.47-.53 6.54-1.23 1.12-1.23-1.43-1.57-3.28-2.08 3.14-1.27 6.81-1 9.58-3.4.14-1-1.39-1.58-.93-2.65 3.31-1.34.68 1.71 3.73 1.62.85.48-.87.52-1.39 1.42 4.25 1.44 11.44-1.91 16.35-.36 3.94-3.25 9.09-3 13.78-4 2.2 1.32-2.69 2.21-2.38 4.15 4 .45 3.63-3.24 5.6-.22q1-2-1.11-3.33a32.06 32.06 0 0112.44-2.39c.38-2.85 4.77-2.78 7.79-3.16.73.32-.29 1-.74 1.6-.87.57-2.15-.12-3.27-.35-.67.51-.7.87-.26 1.13l-1 .92c2.43.37 3.94-2.07 6.78-.42-1.08 1.2-2.72.66-4 1.24-.12 2 3.73.08 5.13.29-2.88 3.66 4.69-.49 8.15 0-.58-1-.48-3.07 2-3.65-1 2.06 2.07 1.36 2.92 3.28a1.82 1.82 0 011.66-.72c-1.7-1.6 2.32-2.25 2.47-4.12 1.67-.1 7.26.72 10.06-1.87 2.39.44.73 1.75.82 2.69 3.56.13 6.65-.47 8.82.23l1.95-1.81-2.76-.87c-1.6 2.31-4.4.63-6.56 1 2.28-2.06 5.67-.54 8-2.4 1.2 4.08 7 .44 12.29 1.43-1.88-.09-3.36 1.23-5.39.73.36 1.71 5 .11 6.77-.29.26-1-.22-1.85.39-2.92 3-1.14 2.15 1.42 3.64 1.76.58-.85 1.45-.69 2.35-.47-.56-2.11 2.23-2.67 5.87-1.18-2.45-1.85.66-.91 2.76-3.39 3.92 1.19-3.71 2.47 1 3.36.26-2.67 2.69-2.45 3.75-4.3 3.36 1-2.88 2.26-1.6 3.16 2.87-.56 3.47-.7 4.83-2.74 3.09.9-1.73 1.18-.61 2.25 5.84 1.34 6.58-1.78 11.39-3.69 1.6.5 1.15 1.42 3.58 1.76 2.12-2.07 5.07-1.09 7.36-2.53 1 .75 0 1.88.73 2.69-.62.8-1.49.58-2.16 1.14-2.17-.28-.29-1.36-.55-2-3.44 1-4.18 2.47-8.54 2.77 2.7 0 5.57.72 7.92-.52 2.26.55-3.16.76-.82 1.59-2.9-.1-5.55.77-8.39 1-.37.55 1 .75.38 1.35-2 1.15-1.07-1.14-3.4-1.1a3.44 3.44 0 01-2.84.93c1 4.22-6 .19-8.31 3.43-2.39-.46-.12-2.14-2.93-1.54-1.29 1.68 1.35 2.57 0 4.26 1.85.69 3-.85 4.88-.27.45-.56-.84-.78-1.57-1.1 1.62-1.56 3.84-1 5.86-1.17.73 1.14-1.68.94-1.77 2.48-2.27.7-4.77.62-6.82 2.07-2.38-.46-.12-2.13-2.92-1.55-2.26 5.66-16.09 4.71-23.51 6.48-.67-.81 1.75-2.24.36-2.91 7.19-.91 14.56-1.14 21.49-2.88.7-1.41-3-.67-3.51.71-2.15-.79-4.45 0-2.45-2a57.56 57.56 0 01-5.67 1.83c-.77-.78 1.1-2.11-2-2.44-1.24 2.3-2.05 1.79-5 2.06-2.48-.33 0-1.66-2.46-2a20.42 20.42 0 00-11.09 4.48c-.14-.56-1.6-.84-1.11-1.54 1.36-1.3.73 1.66 2.34-.52-3.9-.53-7 1.41-10.93 1l-3.35 3.25c-1.46-.63-1.82-1.51-4.35-1.9-1.63 2.79 2.24 1.85 3.4 2.82-1.76 1.67-5-1.35-6.52 1.09-3.19-.74 1.45-3.19-2.45-3.75-.45.45.47.61.9.87-4.1 2.16-8.92 2.09-13.55 2.64-1.88 2 2.38 2.58 4.39 1.89-1.95 1.1-3 4.75-5.67 3.74-1.47-1 2.28-.92 1.2-2-1.65-1.23-2.05 1.34-3.71.12-.88 1.57.81 1.68-2.15 3-1.6-.36-1.83-1-.66-2-3.69-.63-2 3.31-5.4 2.62-1.23-.79 2.49-2.69-.41-3.12-2 1.27-1 1.9-2.14 3a4.23 4.23 0 01-2.33.54c-.5-1.06 2.74-1.81 1.43-3.19-2.91.81-2.59-.37-6-1.1-5.87.11-11 3.21-14.86 4.31 2.42-3.2-9.84.9-14.21.91-.4-1.82 5.5-1.06 7-3.49-5.34-.47-8.21 4-12.36 2.62-.43.59.89.75 1.64 1-1 2-3 .88-4.18 2.46-5.58-2.2-10.19 2.27-13.78.45-4.73 2.85-8.59 1.92-12 5.27 2.15-.44.85.28 2.8.72-5.53 3.81-8.81.59-10.29-2-.94 1.7.78 2.7.35 4.26-2.65.27-5.08 1.11-7.89 1-1.22-.64 2.72-1.56 3.41-2.7.9.6-9.25 1.12-10.68 2.06-1.48.06-2.18-1.72-.51-1.31-.71-1.56-2.33.58-3.48.91-.42.59.91.73 1.67 1-4.68 1.38-13.67-.68-19.31 2.92l-3.55-.83c-.89 1-2.5.17-3.19 1.63-6.42-2.08-10 2.8-16.35.93-4.49 3.16-10.21 3.34-16.3 2.75 2.72-1.93 2.58-2.7 4.68-4.24-5.73 1.73-10.58 5.64-14.34 4.4 1.39 2.71-2.14 5.24.81 7.86-3 .5-6.26.5-9.31 1 1.58 2.8 11-2.1 12.3 1.47-.81 1.1-2.72-.32-4-.27.48 2.17-4.6 1.53-6 4-.12-1.18-.32-2.35-3.72-2.57 1 1.51-.7 2.39-2.71 4.13-2.35-.71-6.37-1.35-5.59.57-2.47-.24-1.88-1.68-4.31-.92-1.73-.87-.18-.91 1-2.14-2.61.48-5.25.91-7.33 2.57-2.47-.49 1.1-2.79-1.47-3.25-.79.81-.37 3.65-3.28 2.83 0 .86-1.07 2 1.62 2.1-2.9 1.7-2.52 1.26-3 3.46-.63 1.46-3.11-1.07-3.74.39-2 2 2 .83 3.19 1.25-1.4.73-3.36.26-4.57 1.41-1.56-.49 1.56-2.48-1.19-2.59 0 1.62-3.75 1.89-3 .58-2.21 3.6-8.61 4.27-14.71 3.56.19.8-.83 2-.63 2.8 2.74-.12 1.67.28 4.33.85 1.23-1-.24-1.16-1.33-1.43 4.5-2 10.16-1.58 15.29-2.26-3.45 2.42-8.65 1.09-12.1 3.47a35 35 0 017-.37c-1.91 1.48-5 .51-6.2 3.46-1.57-.49.1-2-2.36-2.22-.65.91-1.76.88-2.39 1.87-1.73-.06-.78-1-.2-1.79-1.43-.28-2 1.19-3.71.43.34 2-3.92 2.1-3.31 4-3.61-.09-1-2.16-3.83-2.5-1.82 1.74-7.66 2.21-8.6 1.26-2.94 2.31-3.92.31-6.81 2.26-1.91-.73 1.56-1 1.63-2-3.89-.29-6.4 2.2-10.12 2.27a3.37 3.37 0 00-.25 3.46c-2.06.32-5.36 2.13-4.7 3.82-2.85.21.75-1.74-2.1-1.53-1.9.18-3 1.94-5.27 1.39-1.71 1.55.13 1.82-2 2.55-2.41-.44 1.53-3 .63-4 .84-1.39 3.72 1.2 4.13-1-1.31-1.31-5.69.4-7.54 2.16-2.4.05-1.32-1-3.25-1.15-2.29 2-7.4 5.42-9.13 4.3-1.16 0-.76.9-.06 1.16-2 1-3.8 2.11-6.72 1.23-.69 1.68-2.43 1.33-3.11 3 1.88-1.92 6 .46 7.51-2.27 2.51 1 .49 2.46 5.06 2-2.09 3.29-4.3 1.32-5.24 1.47-1.39 2.34 2.85.35 3.59 1.74.59-1.41 1.71-1.81 3.38-1.18.83-1.72 2.59-1.38 2-2.59-2.25 0-3.35 1.34-3.65-.59 1-1 3.32.4 4.1-1.08 1.64.88-.65 2.2 2.86 1.64-2.33-1.78 2.53-.82 4.51-1.53.55.25.95 2.32-.87 2.15 1.55-.57 6.28.3 8.56-1.37 3.55 2 6.09-1 9.11 1 2.59-1.55 1.52-2.8 4.66-3.81.86.34-.41 1.39-.88 2.17 3.46 1.22 5.27-.84 8.11-.85.44-1.13-.28-1.28-1.76-.91.75-2.11 4-1.34 3.14-2.92.32.23 1.77 1.77 2.89.53 1.74.83.2.91-.9 2.17 3.56.13 5.8-2.4 10-1-.64-3.71 5 .22 6.15-3.44.42 2.19 2.79 0 3.92 1.35-2 .9-3.82 2-6.67 1-.51 3.29-6.93 2.76-11.2 2.48.28 1 .55 2.07-1.37 3.84 3.85-5 18.4-.68 20.78-8.19 3.73-.81 7.08-2.42 11.17-2.43.46-1.13-.24-1.3-1.73-.94l2.47-3a5.84 5.84 0 013.69-.42c-1.2 1.57-3.43 1-4.32 3.23 2.09.32 3.74-.32 5.84 0l1.65-2a10.23 10.23 0 013-.57c1.49.39.49 1.58-.64 2.8 4.47-.75.74-3.85 5.88-4 .2-.68 0-1.21-1.31-1.45a5 5 0 013.11-1.67c-.91 3.5 8.25 1.62 11.86 2-3 1.79-12.2 2.34-10.73 4.69-3.39 1-7.28 1-10.46 2.5.54 1.94 4.35-.76 6.23-.49-2.25 1.72-2.6 1-3.6 3.37-2.72-2.37-3.44.72-6-1.81-2.25 2.08-.38 2.84 1.11 3.73-1.87 1.27-2.91-.75-4.28-.86-1 1.18-2.44 1.22-3.17 2.86-2.36 0-1.27-1.08-3.17-1.22-1.72 2.37-1.41.53-4.09.92-2.14 1.83-5.16 1.85-7.25 3.79-2.67 0-.43-1.59-1.65-2.07 2.48-1.42 8.3-1.5 6.54-3.94-1.6.28-2.52 2-3.89 2.73a2.68 2.68 0 00-1.75-.94c-1.75 2.2-2.21 2.47-4.91 1.94-2.63 2.2 1.54 2.23-1.08 4.42-.47.38-1.13.36-1.53.88-2.44-.18-1-1.66-1.27-2.57-2.25-1-3 .88-5.11.22-.94.81-.19 1.06.64 1.28-3 1.9-7.83 0-9.75 4-6.65.95-10.53 3.9-16.65 3.34-1 2.25-3.53 1.64-5.26 2.55.16 1.77 1.13 1.83-.17 3.46 3.36.48 3.15 0 5.78 1 .4-2-.4-1.21.91-3.29 2.2-1.26 5.2-.93 6.77-3.4 2 .69-1.18 3.13-1 4.45 1.77.37 5.37-2.15 5.83-.09 4-.75 6.52-4.32 11.47-3.1-1.72 1.74-4.26 1.9-6 3.52 1.63-.21 2.94-1.08 5.11-.21-.09-1.55.42-1.72 2.21-.74 3.12-3.72 9.1-1.71 13-3.95 2.57-.07.37 1.37-.16 2.28 2 .69 3-1 4.78-.77-1.55-.85-2.17-2-5.65-2.29a2.18 2.18 0 01-.24-1.78 23.84 23.84 0 014.09-.93c1 .44-.65 1.69 2.06 1.57 1.15-1 .58-1.42.9-2.14.61-.5 1.69 0 2.24-.71 2 .94-.82 1.13-.19 2.29-1.26 1.37-3.9-.06-4.87 1.92 18-4.07 35.22-9.83 53.72-12.66-.09-3 6.17-3.31 8.14-1.7.52-1.75-1.9-2.62-1.31-4.38 2.92-1.64 3.83 1.06 6.62-.88.76.26-.17 1-.55 1.64 3-.46 5.13-2.83 8.28-2.84-1.79 4.5 7.56-.06 13.26 1.33 2-1.29-.83-1.24-2-1.64 4.63-1.15 2.76-.23 7.33-.6.46-.73-2-.66-1.25-1.47a5.66 5.66 0 013.66-.3c-.09-.7.22-1.52 1.43-2.59 2.06-1.73 2.48 1.23 4.53-1.27 1.13.42.86 1.22-.31 2.28 7.19-.93 6.53.35 14.52-3 .67.42.89 1 .12 1.79 4.48-3.37 10.47-3 15.28-5.64.43.37.87.74.52 1.31 2.12-.47 3.77-2.08 5.34-3.93q3.12.27.79 2c6.51-2.56 14.74-.66 20.19-6 2.45.2.12 1.66 2.58 1.87-.88.94-2.46.11-3.15 1.54 5.1-1.92 11-5.63 18.33-5.86.3-1.67-4.85.14-2.11-2.35 3.49.57 6.36 1.14 8.71 0 .92-2.51-2.45.42-4.37 0 1.56-2 4-1.63 5.94-2.51a5.77 5.77 0 010 3.59c5.58-1.88 8.87-5.35 16-5.65.64.32-.43 1.06.49 1.33 1.16.4 2-.17 3.2.3 1.63-1.77.52-1.56 2.72-2.82.42.63 1.25 1.15 3 1.44 2.6-1.38 5.6-1.67 8.44-2.39 1.63.53-1.36 1.6-2.06 1.22 2.91 1.5 6.86-2 7.76-4.39 3.27.17 1 1.69-.23 2.94 4-1 7-4.72 11.44-4.48 1.51.22-1.1 2.4-2.07 1.18 1.18 1.27 3.57 1.3 6.4.72-.84.31-3.29 1.21-.69 1.58-1 .63-2.56-.25-3.21 1.43 2.31.8 3.8-.88 6-.6-1-.72-.07-2.74 2.31-2.3.39-.77-1.06-.08-2-.62 2.09-1.12 4.33-1.78 6-4.18 3 .29-.67 2 2 2.42 1.33-1.45 4.26-2.11 3.73-3.68 5-.67 10.93-1 14-2.37-.2-.79-1.1-1.43 1-2.72 2.48 1.51-.48 3.23 4.5 2.58-1.1 1.69-2.93 1.08-4.38 1.68.78 1.67 5.24-1.45 7.56-1.31 0-.61-1.07-1 0-1.8 2.07.29 3.17-.48 5.22 1 1.92-1.26.2-1.72 2.14-3 1.64-.58 4.26 2.18 6.42-1 1.83.34.6 1.3 2.92 1.55-1.07 1.16-2.53 1.06-3.93 1.15 9.66 1.57 22.33-4.37 33.17-5.57.37.88-.38 2-1.53 3.14 2.23 0 4-1.5 6.43-.92 1.3-1.09.47-1.75-.11-2.46 5.07-1.08 15.37.24 19.21-5.25 2.14 1.18-1.64 1.59-1.07 2.7a46.5 46.5 0 017.59-1.11c.4-.66-.42-1.1.12-1.79 3.63-1.33 11.11 1.38 12.26-1.83 1.59.54 1.13 1.45 3.52 1.84 1.63-.71 2.95-2.61 5.12-1.26 1.73-4 10.14-1 14-4.25-.28.75 2.48 1 1.66 1.82 2.71-1.26 5.29-3 8.76-1.21a6.14 6.14 0 013.14-2 2.4 2.4 0 001.48 1.15c.26-1.17 3.41-1.73 2.32-.42 1.56-1.29 4.65-1.61 8.08-1.43-1.09-1.33.42-1.73 2.52-2.16.69.36-.37 1-.85 1.53 3 .07 5.77-1.09 8.8-1-1.87 2-3.1.15-3.68 2.32 1.82.07 3.69.32 5.32-.47.73.47-.72 1.28-1.36 2-2.13.32-4.78-1.56-6.46.66 2.45-.84 2 2 4.46 1 1.09 1.41-1.09 1.91-3 2.58-1.21-.64 0-1.64 0-2.46-2.47-.56-2.84 1.25-3.65 2.33-1.93.33-3.7 1.26-5.92.35 4.35-.44 2.64-2.72 5.94-2.81.77-1.43-3.83.06-.49-2 2-1.44 0 2.18 2 .74 2.68-1.91.18-.85-1.64-1.85a4.11 4.11 0 012.33-.36c-2.84-.91-9.84 2.47-14.54 2.16 1.69 1.74-2.1.79-1.82 2.44a23.28 23.28 0 007.76-2.79c2.5 4.26-7.3 4.54-9.9 6.34-4.69-.92-1.07-3.33-4.14-4.55.39 2.26-4 .08-5.43 2.38 1.7-.66 7-.8 5.78 1.44-3.8-1.64-2.7 1.72-7.59 1-2.61-.6.12-2.14-2.49-2.74l-2.47 2.21c1 .29 2 .59 1.51 1.14-5 2.63-10.52 3-15.64 4.89 2.15 1.29 3.56-.24 5.46.09-2.94 1.72-8.46 3.64-10.56 1.17a5.23 5.23 0 004.26-2.16c.31-1.39-2.89.08-2.18-1.38-3.54 1-5.86 4.24-9.25 1.64-1 1.62-2.55 1-4 1.06.19.55-.92 1.36-.11 1.8-4.52-.31-11.1 3.54-14.14 1.39-2.44.65-4.75 1.74-7.17 2.49a2.22 2.22 0 01.1-1.79c-2.37-.26-1.14 1.58-2.38 2.25-2.65-.65-1.62-2-1-3.36-2.79-.06-5.82 1.33-7.48-.63-.36 1.49 2.24 2.39 0 4.25 3.9.29.46-3.19 5.34-2.49 1.14 1.18.49 2.16-1.52 3.15-4.22 1.51-9.57-.88-13.69 1-2.21-1.53 1.56-1.49 2.85-2.7-2.2-.58-3.79.9-5.55 1.81a2.45 2.45 0 001.55 1.11c-1.4.69-2.34-.35-2.1 1.13-3.66-.72-5.86 3.46-10.07.94.11 1.6-4.66 2.77-5.74 1.17-1 3.29-6.39 4.34-10.31 4.06-1 .68-.17 1-.73 1.59-3.33-.47-6.33 1.27-7-1l-3.25 3.22c-4.25-.26.44-2.49-2.21-3.1-2 1.93-4.59 2.19-7.32 2 0 1.19-2 2.82-2.33 4.09-2-1 1.86-3.27-1.31-4 1.06 3.25-6.31 4.69-10.31 4.06-2.7 1.29-1.65 3.21-5 3.25-.28-1.21 1.41-3-1.82-1.74-.94-.87.29-2.21 1.85-3.62a.92.92 0 00-1.14.25l-1.37-.41c-1.52 1.28.13 1.86-1.39 3.16-2.6 1.62-3.11-1.11-6.6-1.33-1.63 1.8-4.36.43-6.13 1.83 2.92 1.33 5 .32 7-1 .27.77 1.88 1.22 3.62 1.65-2.57.25-1.74 1.67-5.21.89-2.31 1.28 1.85 1-.45 2.27-3-1-8.2.65-12.48 1.2-.39 1 3.72.26 4.77-.43 1.68 2.4-4 3.41-6.79 3.43-2.26-1.18 3.93-1.07 1.81-1.87-3.49-1-1.82 1.72-5 1.56 2.16-4-8.51 2.56-13.43.36-.81 1.68-4.77 3.47-7.19 5.68-.79-3-9 1.77-9.93 3.16-1-.21-2-.43-1.62-1-.52 1.26-3.31.72-5.13 2.79-2.74-1.94-3.93 1-7.63 2.71-1.12-.55 0-1.68-2.56-1.86-6.32 3.57-10.7 3-17.51 6-1.17-.63 0-1.78-2.34-1.2.95 2.66-3.46 2.11-5.89.81 2 1.69-1.11 4.07-4.58 4.1-1.65-1.38 3.53-.94 2.15-2.38-1.19-.38-2 .19-3.22-.25-.48 1.09 1.24 1.48-1 2.11-.89-.35 1-1.5-.11-1.79-3.9.14-4.65 1.44-3.94 2.57-2.54 1.34-.84-2.07-3.46-.86 1 1.49-1.17 2.72-3.4 3.87-1.81-1.67-1.75.43-4.59-.54.6 1.41-2.29 2.07-4.2 1.9-.53-.72 1-.72-.12-1.79 0 2.29-9.71 2.49-7.16 5.29-2.44-.34-3.24 3.14-5.72 2.69-2.23-1 1.41-1.52 2.24-3.54-2.28 0-4 1.34-6.3 1.4.88 4.36-7.6 4.53-9.33 5.95-.37-1.27 2.1-2.59 2.9-3.42 1.34.11 1 .69.57 1.29 2.78.06 1.31-1.45 3.91-2.55-3.91.64-4.64 1.31-9-.36-1.93 1.43.95 1.43.44 2.44-4.37-1.38-16.18 5-21.39 5.65-.63.44-4 2.65-1.75 3.09-2.21 2.3-6.12.29-5 3-2.06-.36-.62-1.78-1.19-2.59.78-.62 2.1 0 3.23.15 1.15-1.81-2.27-1.66 1-3.26-2.87.82-2.82 1.86-5.78 3.93a2.76 2.76 0 00-1.71-1c-1.32 1.66 1.54.45 1.6 2.1-1.38 1.11-3.6.43-4.55 2.46 9.24-1 17.79-3.37 26.39-5.67 2.75-.08-.79 1.71 2 1.62 2.09-.63 1.11-1.21 2-2.45 2.82.64-.19 3-1.58 4.89-4.73 1.31-11.38 0-16.46 3.81-1.63.56-3.9-.26-5.43.52 2.24 1 1.68.91-1.91 1.3-1.62 1.23.58 1.3-.21 2.28-5.34-1.24-5.37 1-9.1 2.08-1.85-.16-.8-1.23-3.1-1.25.9 1.34-.36 2.83-3.08 2.83-1.84-.16 2.19-2.18-.92-1.93-.42.9-1.3.82-2.19.7.19.56-.14 1.27-.89 2.13-5.09.76-7.54 1.25-12.22.9.42 3-4 .5-5.56 2.88-1.75-.85 1.9-1.06 1.95-2.48-2 .73-3.84 1.67-6.2 1.6-1 .64-1.21 2.73-2.67 2.34 1.54 1.45.79 1.49-1.28 3.8 4-1.78 6.75-.28 9.45-2.7 2.76.81-.77 1.57 1.65 2.08 1.75-1.66 1.42-2.67.22-3.4 1.06-.89 2.52-.93 3.38-2.19 1.19 2.07 4.17-.1 5.8-1.1 2.08 1-1.75 2-1.34 3.77 2.23-.4 2-1 2.66-2.33a10.73 10.73 0 006.41.2c-.46-.84 1-2.29 2-3.62 1.22.85.91 2.19 3.73 2.53 1-1.42 3-.82 4.37-1.39-.23 1 1.46 1.28 1.61 2.09 5.51-2.51 11.7-3.6 17.87-4.68 2.37-3.06 7-1.17 9.62-3.61 7.32 1.64 13.22-6.21 19.15-3.13.57-1.53 2-1 2.75-2.25 2 .82 3.51.46 5.28.71-1.9 1.42-4.34.61-4.28 3 .18-2-1.73-.46-3.86-.34-.75 1.79 1.18.79 2.75.64-1.88 2.33-4.82 2.2-7.38 2.94-1.29-.34 2-1.8 3-1.62-1.68-1.42-6.53 2-9.48 2.45 1.84.86 2.45-1 4.28-.17-5.24 1.1-6.4 3.28-10.8 5.06-2-.27 2.92-2.59-.46-2.44l-1.61 2c-5.42.11-10.56 2.92-13.28 5 2.31-2.75-2.67-.65-5.68-.14.08.94-.93 2.13 1.3 1.45-2.6 3.63-5 .09-7.3 3-2-.48-1.7-1.69-1.92-2.74-1.74 0-3.07 2.91-2.75 3.47-1.86 1.5-7.54 0-6.9 2.56-1 .3-5.07.57-4.59-.4-1.34 2.19-7.14 4.48-12.75 4.78 2.49-1.63 2.33-1.25 3.8-3.8-2.17-.16-4.23 0-6.41-.2-1.41.89 2.81 1.74.25 1.78-.16 2 2.45-.83 3.28-1 1.51 2-4.14 5.4-8.06 4.11-3.66 1.07-5.15 6.46-9.83 5.54l-1.5 2c-2.15 0-.58-1.3-1-1.91-2.43.19-3.29 3.43-6.15 2.8-1.75-.83 1.63-1.52 1.88-2.5-5.61 2.91-10.62 6-15.81 5-1.74.72-3.67 1.08-4.68 3.16 1.53.08 2.13.5 1.38 1.39-3-.8-7.64 3.32-12.45 2.87.79-1.26 1.63-2.47 3.23-2.26-1.66-.71-7.37 1.27-10.33 2.12-1.61 2.44 1.86-.64 3.55.63-1.23 1.69-3.55 1.32-4.67 3.16.71.38 1 .91.33 1.76 1.91.4 2-.58 2.83.52a4.15 4.15 0 00-1.78 1.38c-4-1.41-4.45-.48-8.46-.31.89-2.2 4-.38 4.94-2.59-1.89-.73-2.68.53-4.58-.21 1.81.86-2.49 3.68-4.61 4.36-.77-.22 0-1 .35-1.65-2.26-1-2.88.93-5 .31-.54 1 2.18.71 2.13 1.5-3.07 2.47-7.7 2.25-11 4.41.95 1.66 2.54-1.25 4.6-.93.51.19.36.63 1.07.75-3 .38-3.08 1.86-5.63 3.6 1.18 1.71 3.42.2 3.52-1.69 2.92-.07-1.23 2.77 2.14 1.5-.79 1.27-4.26 2.95-.75 3.5zm212.25-49.59c1.43-1.91 4-1.09 6.11-1.33-1.57 1.59-3.79 1.56-6.11 1.33zm172.67-28.2c-1.24 1.85-5.49 1.36-2.06 2.9-2.88 1.52-6.14 1.71-9.51 1.63 1.09-1.72 1.71-.9 2.48-3.4 1 .23 2.26 1 3.07.42.6-.59-.73-.8-.41-1.33 2.22.19 3.72-1.99 6.43-.21zM3078 1248c2.42-.53 2.44-2 4.44 0-.33.94-3.29 1.39-4.44 0zm10.87-36.22c4 0 4.53-.2 8.48-1.59.73 1.74 2.45 1.26 4.24.65 1.31 1.83 1.66 2 2.06 4.08 3.6-.58 2.05-2.39 1.75-3.9 4.53 1.82 2.8 4.87-.73 5.94-3-3.33-9.11.13-12.71-1.94-1.51-1.89 2.58-.23 2-1.67-2.11.33-5.55-.35-5.06-1.59zm-374.23-44.69c-2.5 1-4.36-.77-6.72-.36a7.37 7.37 0 016.75.34zm-191.36-7.82c-.92-1.23-5-1.09-3.94-2.59 1.54 1.6 6.05.51 3.97 2.57zm-144.74-3.84c1.61.33 3.32-.89 4.85.78-1.31 1.01-5.62.61-4.82-.8zm-839 109c-2.5.76-5 1.56-8 1.13 2.27-.51 7.14-2.71 8.02-1.15zm57.66 8.45c.38 1.52-10 3.84-9 1.27 3.5.85 5.46-2.34 9.02-1.29zm-203.39 54.79c.32-.72-.26-1.16.89-2.17 1.28.36 2.06-.28 3.32 0-1.02 1.5-2.1 2.79-4.19 2.15zm285.76-24.67a104.31 104.31 0 01-12 2.47 20.74 20.74 0 0112-2.47zm-108.82 27.59c-1.78.28-6.17 2-6.55.73 1.69-.53 6.02-2.44 6.55-.75zm-56.23 13.41c.26.46-.62 3.34-2.75 2.3-1.39-.57 1.59-2.87 2.75-2.3zm-121.84 68.15c-1.35 0-.32.69-1.07 1.53-2.72-1.43-2.57 2.24-5.29.81.83-2.38 5.68-3.44 6.36-2.36zm79.57-17.82c-1.4.56-2.32 2.07-4.33 1.37 1.49-2.44 3.97-1.42 4.33-1.39zm79.41-12.4c.39 1.3-3.05 2.29-5.41 1.57 1.22-1.87 3.36-1.65 5.41-1.59zm16-4.09c-1.5 1.34-6.39 2.08-7.11.52 2.52.24 4.14-1.68 7.07-.54zm-145-32.14c3.81-1 7-3.29 11.13-3.73-2.65 2.8-8.88 4.33-11.13 3.71zm201.87 41.48c.32 1.55-3.43 2.49-5.83 1.88 1.3-2.27 3.49-2.29 5.83-1.9zm-92.1-23.86c-1.85.48-3.2 2.12-5.48 1.64 1.05-1.42 5.05-3.41 5.48-1.66zm-112.66-23.39c-1.31-.69-4.13 1.92-4-.16 1.68-.22 4.67-2.29 4 .14zm3.43-2.28c1.91 1.51 1.94-.18 4.38-.34-.64.84 1.78.65 1.36 1.42-2.82.74-2.68-.7-4.46 1.49l-2.17-.4c.33-.75-.26-1.18.89-2.19zm12.69.69c-1.78.77-3.08 2.53-5.6 1.81 1.07-2.25 3.17-2.39 5.6-1.83zm86.36 10.35a4.78 4.78 0 013-1.64c-2 1.8 1 4.41-3 4.57-1.61-1.25 2.45-2.49 0-2.95zm-69.42-16.85l-1.64 2-2.13-.43c.68-1.74 2.37-1.36 3.77-1.59zm-44-8.47c-2-1.91-2.21.94-4.84.88-1.39-1.97 7.64-3.97 4.87-.9zm125.31 21.1c4.23.38 7.21-4 10.59-1.5-.55-2 3.32-3.07 5.72-2.69-5.17 1.94-3.22 4-7.67 6.88-3.31-2-1.87.87-4.17-1-2.59 1.28-7.68 4.32-9.31 3 .58.06 3.46-1.12 1.93-1.32a9 9 0 01-5.82 1c1-1.61 2.79-1.22 4.71-.67 1.31-1.51 4.75-1.91 4.05-3.72zm77 22.63c.59 1.67-2.73 2.06-4.55 2.27-.43-1.37 2.58-2.56 4.59-2.29zm-91.14-23.63l2.79.64a3 3 0 01-3 1.64c2.1-1.39-2.03-.89.21-2.28zm-89.84-23.73c-1 2-4.14-.4-4.95 1.94-2.26-.31-1-2.33-4-1.34 2.79-3.54 5.38.2 8.9-.6zm42 7.84c-1.23 1.5-2.29 3.38-4.6 2.56 1.58-.64 2.29-3.27 4.55-2.56zm-28.3-5.14c-2.9-1.18 1.66-5.28 4.85-4.89.61 1.23-.58 2.6-1.76 3.16-.95-1.63-2.6.12-3.14 1.73zm127.03 17.56c-.79-1.67-2.47 0-3.07 1.58-1.51.31-2.23.13-2.76-.68-3.23 2.68-8.09 1.44-11.26 4.24-2.12-.29-1.06-2.92-3.2-.2-2.34-.42-3.55-3 0-2.92-.43.6-.78 1.19.55 1.3-1.17-3.81 5.82-4.5 9.09-6.56l3.46.87c2.15-.79 3.59-3.34 6.42-2.53-.17 2.35-5.12 4.17-8.11 4.46.75.31 0 .64-.84 1 1.9-.41 4.33.45 6.1-.25 2-2.65 4.21-4.85 7.68-4-4.5 1.25-2.71 2.38-4.06 3.69zm-95.28-14.6c.72-1-2.07-.86-.89-2 1.79 1.11 1.9-1.48 3.69-.36-1.21 1.59-.22 2.52-1.9 4.25l-2.15-.47zm204.67 50.35c1.19.82-2 3-3.45 1.9 1.09-.75 1.66-3.02 3.45-1.87zm-34.28-15.48c-.46 2.53-7.44 1.16-5.08.91 1.72-.1 2.89-1.8 5.08-.91zm-182.1-44.94l-1.65 2c-.78-.25-2.1-.32-1.74-.93 1.31.1.49-1.93 3.34-1.07zm24.82.66c-.84.87-.27 1.31 1.3 1.46l-2.09 2.46a45.68 45.68 0 01-5.83-.09c2.31-.93 4.32-2.65 6.57-3.82zm-24-1.66c.67-1.3-.25-2.12-.77-3.08 1.44.3 2.07-1.15 3.72-.37-3.52 3.66 4.63-.13 4.18 2.06-2.74-.27-7 3.43-8.57 1.09zm36.19 3.16c-2-2.06-3.79 1-6.65.89.1-3.38 7.1-3.87 6.62-.89zm4.81-.69c2.19-.33 1.57 1.86 2.83.63.64-1.06-1.1-1.4-.44-2.45l2.84.62c-.6.8-1.57 1.7.13 1.81-.94 1.23-1.91 2.42-3.51 2.14.43-.62.79-1.21-.57-1.3-1.78 1.27-.1 1.5-1.4 2.63-3.16-.41.06-2.73.09-4.08zm19.49 3.88c-1.86 2-4.34 2.66-7.5 1.74 2-1.68 4.62-1.97 7.47-1.74zm-52.09-9.23c2.49-1.63 6.26-.46 8.69-2.23-1.74 2.11-3.48 2.26-7 3.19.37-.6-.67-.78-1.72-.96zm110.3 21.2l-1.73 1.9q-3.06-1.5-4.49 1.16l-2.06-.51c2.28-1.95 5.39-1.95 8.25-2.55zm-96.61-22.35c-2-.2-3.42 1-5.56.56.81-1.58 5.39-2.16 5.53-.56zm187.48 45.34c-2.61 1.62-6.08.83-8.82 2.12.18-2.42 5.77-2.21 8.79-2.12zM1470.14 1305c-.71-.64.32-1.81.68-2.78a12.7 12.7 0 014.58-1.37c1.07.78.61 2 .75 3.09 1.61-3.12 4.61-3.2 7.13-4.34 3.45 1.55 5.54.51 9.86.36-1 2.21-7.68 2.74-11.42 3.41 1.26.24 1.51.78 1.3 1.46-3.41 1-4.65.76-3.59-.77-2.45 1.17-10.07 4.77-13.87 2.31 3.22.03 1.92-.95 4.58-1.37zm36.95 6.26c-.15 1.9-.75 3.11-4.38 3.15 3.81-1.11.47-2.31 4.38-3.18zm-27.2-4.76c1.54.08 2.71-.68 4.43-.22-1.08 1.62-5.47 2.14-4.43.19zm111.35 24.13a3.16 3.16 0 002.68-1l3.44.9c3.16-2.56 4.66-1.41 8.46-3.64-.85 1 1.33 1.1-.35 2.26-2.73-.69-4.7.62-6.72 1.75 1.32.86 2 1.91.16 3.59-1.86-.05-3.58.27-5.68-.34 1.24-1.53 3.27-1.1 4.39-3-1.47-1.15-5.45.72-6.38-.55zm2.33 1.21c-1.48 1.49-3.46 1.67-5.87.8 1.57-1.29 3.86-.64 5.87-.83zm-97.72-27.17c2.83-.11-.83 1.72 2 1.61a4.69 4.69 0 01-4.55 1.36c-.42-.87 1.04-2.58 2.55-3zM1701 1359c-1.2 1.13-2.36 2.34-4.15 1.7 1.07-1.6 2.62-1.7 4.15-1.7zm-209.74-55.89c1.44.18 1.09.89 2.42 1.12-.9 1.34-2.38 1.4-4.12.86zm61 10c1.25.25 2.08.63 2.37 1.16-2.31 1-4.39 2.57-7.47 1.73 1.31-2.06 3.94-.78 5.16-2.92zm-50.06-10c3.56.32 5.84-2.34 9.41-2-3.19.55-5.19 3.83-8.84 3.3.61-.67-.77-.74-.51-1.32zm16.78 3.25l1.72-1.95c1 .57 2.73.94 2.68 1.81-1.8-.9-2.48.99-4.38.12zm-21.19-6c.36-1.09-4.52-.61-2.29-2.26 2.83-.89.62 1.37 3.85 1.43l-2.14 2.47c-1-.57-4.21.81-3.56-.77 1.24-.75 2.92-.35 4.2-.87zm114.77 26.49c-2.71-.12-1.58 1.92-4.91 1.64.89-1.71 4.79-3.59 4.97-1.64zm-77.72-23.85c-2 .79-3.84 2-6.12 2.08 1.42-2.16 3.91-1.8 6.12-2.08zm190.5 52.41c-1.13.78-2.14 1.88-3.75 1.18-.48-1.27 1.75-2.31 3.75-1.18zm-170.73-50.64c-2.27.14-4.08 1.37-6.66.76 1.23-1.75 6.35-1.89 6.66-.76zm70.34 18.87c2.51-.94 5.39-.94 8.13-1.26-1.85 1.95-8.39 4.04-8.08 1.26zm-108.22-37.85c-1.81 1.85.42.31 1.71 1-.78 1.72-3 .13-3.9 1.46 2.69 1.27 4.3 0 6.59.35.74.44 3.81 2 .39 2.45.67-1.57-2.37.21-3.57-.83-1.47 2.61-4.73 1-6.63 2.59-2.4-1.1-3.72-1.15-6.59-.34-.7.81 1.75.73 1.28 1.46-5.88-.34-3.58-2.51-2.52-5.86 1.54.18.83 1 1.28 1.47.73-.8 2.23.18 3-.48-1.28-.25-2.13-.62-2.43-1.15 1.65-1.63 3.68-.92 2.19-2.43 1.36-.37 2.55-1.11 4.46-.17-.48.92-2.19 1-1.32 1.47a27.71 27.71 0 016.06-.99zm21.87 6.29c-.54-1.18 1.59-1.36 2.91-2.28 1.82 1.67 4.49-.62 7.4-.61-1.81 2.69 2.48-.69 4.23 1-2.19 1.42-5.25.65-7.57 1.76-3.65 3.16-.84 6.58-6.11 6.83 2.8-2.09 5.06-7.12-.86-6.7zm204.86 57.22c.71.67-2.34 2.18.18 2.46 2.66-1.66.89-2.35 1.81-3.61 1.14.5 2-.05 3.07.39-.86 2.89-2.86 4-3.81 6.55-4.8-1.7-5.44-1.32-9.89-1.4a16.28 16.28 0 018.64-4.39zm-105-28.94c-.39 1.57-2.15 2.39-4.72 2.21a21.52 21.52 0 014.74-2.21zm-136.55-34.42c-.75.93 2.07.87.84 2-2.54 1.13-3.75-1.76-.82-2zm49.28 7.35l-3.5 3.91c-.92-.2-1.53.39-2.55 0-1.14-1.32 3.01-4.06 6.07-3.91zm92 26.64c1.77.43 3-.28 2.3 1.25-1.37-.38-2.07 1-3.62.15zm-49-16.91c3.68.74-1.23 3.11-3.35 2.69.83-1.6 2.49-1.09 3.34-2.71zm-71.73-15.91c1.13-.35 4.07.41 2.67 1.81-1.83-.34-3.54-.72-2.68-1.81zm123.46 30c-.24.29-.43.57.23.66a3.26 3.26 0 012.71-1 6.29 6.29 0 01-5.41 2c.77-.63 1.39-1.77 2.46-1.63zm-4-5.88c-2.31-.7-3.35 2.1-5.67 1.36 1.16-1.47 5.41-3.11 5.69-1.33zm-147-38.69c-.45 1.71 2.66 0 1.61-.82 1.88.32 1.57 1.27 1.55 2.12-2.77.4-1.82 1.15-5.81 1.65a4 4 0 012.62-2.92zm286.88 71c-1.12 1.5-2.94.69-4.44.89q1.64-2.2 4.41-.84zm-152-48.83c-1 1.29-2.44 1.27-4.12.63.95-1.24 2.41-1.22 4.09-.58zm60.67 16.9c3 .45.42 3-1.84 1.84 1.28-1.19-.24-1.22 1.81-1.79zm-50.34-17.59c2-2 7.65-2.84 8.92-1.07-3.13-1.28-4.84 1.48-7.3 2.12.6-1.07-1.66.31-1.65-1zm170.42 45.6c-2.28.91-4.55 1.86-7.3 1.09 2.02-1.27 6.21-2.78 7.27-1.04zm-261.55-76c-1.43-.19-5.64.75-5.46-.75.97-.77 5.68-.5 5.46.85zm55.86 5.75c2.55 1.2 4.22 0 6.54.59-1.68 1.72-4.5.36-5.78 3.19-1.51-.65-2.37.45-4-.46 2.21-1.69 1.78-1.22 3.21-3.22zm99.39 26.65c2.52.52 3.72 1.33 1.55 2.89-1.85.13-3-1.49-5.68-.54.97-1.84 2.98-.7 4.1-2.25zM1592 1255.37c-1.72 1.71-3.5 3.23-5.8 3.32 1.7-1.69 3.18-4.01 5.8-3.32zm60.89 18.35c-1 1.3-2.47 1.28-4.15.64 1-1.3 2.47-1.28 4.14-.64zm-21.76-8.43c-1.76 1.54-3.67 2.66-6.27 1.88 1.78-1.5 4.14-1.48 6.26-1.88zm17.16 2.34c3.54.58 6-2 9.26-2.23-1.07 2.87-5 2.76-9.27 4-.42.63.14 1.26-1.61.75-.06-.68.33-1.49 1.61-2.52zm57.64 12.77c-2.43 2-5.34 2.51-8.3 2.9 2.37-2.16 5.37-2.48 8.29-2.9zm-101.54-31.32c-1.27 1.19-2.93 1.31-4.47 1.8.72-1.37-1.12-2.13 0-3.59 2.8.28 1.99 1.43 4.46 1.79zm-8.92 3.6c-1.58-1.43-2.71-.34-5.41-.79 3.85-1.41 5.67-5.72 8.9-3.65-3.19 1.35-2.41 2.67-3.5 4.44zm10.58-.76c-1.71-1.06-5.22 1.78-5.17-.19 2.14-.56 4.12-1.55 6.81-.57-.92.82-.39 1.29 1.19 1.52a9.35 9.35 0 01-5.62 2.08c.6-.89 4.3-1.83 2.74-2.84zm47.61 9.37c-1.79-.31-2.93 1.29-4.88.46.83-1.37 5.22-1.61 4.87-.46zm-7 1.69c1.43-1.19-2.33-1.12-.22-2.47 2.77-.02 2.64 2.49.24 2.49zm15.49 3.14c1.14-1.55 2.82-1.51 4.2-2.36 2 1.07 3.46.35 5.11.3-2.27 1.23-1.14 1-2.83 2.77-1.46-1-2.42-1.4-4.19.57-1.22-.33-2.02-.74-2.27-1.28zm107.32 29.19c-1.14 1.8-3.79 1.67-3.3 3.14l-1.34-.44c-.32.26-.66.5-1.14.22.52-1.76 3.05-3.33 5.8-2.92zm86.24 34.18c1.57.25 2.68-.84 3 .52-1.07 1.67-4.24.79-2.98-.52zm-245-80.51a11.2 11.2 0 01-5.65.29c.81-2.11 5.99-.97 5.67-.27zm142.86 37.43a9.84 9.84 0 01-6.88 1.38 9.89 9.89 0 016.9-1.38zm-119.16-40.64c-1.39-.12-.46.66-1.42 1.43-2.59.3-3.44-1.62-6.1.75.16 1.2 3.77 0 2.58 1.9-2.3.59-3.91.33-5.39-.86 2.5-2.64 8.44-4.99 10.35-3.22zm98.29 32c2.64 0 4.57-2.49 7.61-1.16-1.72 1.74-4 1.61-5.85 2.93-1.66-.33-2.41-.89-1.74-1.73zm-55.09-19.76a7.3 7.3 0 013.92.57c-1.05 1.93-5.25.87-3.9-.53zm-34.29-14.01a1.93 1.93 0 00-.71 1.61 7.42 7.42 0 01-4-.48 4.9 4.9 0 014.71-1.13zm46.18 12.16c-1.71.5-2.76 3-4.92 2.16a6.73 6.73 0 014.92-2.17zm18.68 1.95c-1.76 2.12-3.13.35-3.55 2.57-1.23-.32-2-.74-2.28-1.29a5 5 0 015.83-1.29zm-13 2.15c2.77.89 4.23-2.35 7.17-.87-1.35 2.35-6.58 2.55-7.17.86zm-42.3-14.22c-1 2.06-3.05.94-4.92.44 1.18-1.48 3.26-.38 4.92-.48zm45.21 9.66c-1.13 1.69-3 1.09-4.45 1.68-.51-1.54 2.36-2.51 4.45-1.69zm6.15-4.23c-2.58 2.09-3.83 2.47-3.61 4.38-2.11.49-1.8-.81-3-1.5 1.17-1.55 2.84-1.51 4.24-2.36-.89-.18-2.41.36-2.07-.61 3.29-1.55 5.33-.62 8.11 0-.44.69.06 1.18-1.23 2.06-2.56-.28-1.33-1.38-2.44-1.98zm9.88 1.75c-3.48 2.18-7.4 2.86-11.43 3.24-.49-3.27 7.12-3.46 11.43-3.25zm-66.48-17.1c-2.75 1.3-6 1.22-8.93 1.79 2.68-1.43 5.51-2.52 8.93-1.8zm21 6.07c.08.93.44 2.66-2.39 2.31-.1-.4.65-2.67 2.41-2.32zm-6.64-6.75c3.53.06-1.83 2.08.18 2.46 1.79.34 2.69-2.07 4.72-1-2.64 2.24-6 2.28-9.23 2.76.33-1.66 3.74-1.76 4.33-4.23zm58 20.8c3.18-2.83 8.23-.58 7.34 1.72-2.2-.96-2.04-1.71-7.34-1.73zm-.74-4.46l-2.4 2.27c-.73-.32-2-.5-1.58-1.08 1.65.68 2.06-2.79 3.98-1.2zm-28.37-10.94c2 .4.79 1.5.15 2.47-.9-.23-1.56.32-2.55-.14zm-12.43-5.46c1.71.93 2 2.16.58 3.79-3.16-.59-2.74-3.17-.58-3.8zm36.75 13.32c1.24-1.92 4.81-.64 5.1.38-2.4 2.12-2.2.09-5.1-.39zm-26.84-15.87a6.54 6.54 0 003.27.34c-2.61 1.45-3.66.22-4.78 2.85-1.61-1.89-3 .25-5.83-.5 2.15-1.82 5.21-.78 7.34-2.7zm17.53-.3c-4.45-1.49-10.34 3.1-12.88 1.06 3.49-.59 12.2-4.79 12.88-1.07zm-3.54.78c-.94.92 1.27 1.14-.54 2.26-1.09-.13-2 .28-3.26-.35 2.44-1.07 1.02-1.96 3.8-1.92zm20.41-5.29c1.76 1 2.68-.83 4.45.16a7 7 0 01-4.56 1.63c.55-.71-.29-1.13.11-1.81zm59.27 11.64c-2 .5-7.57 3.22-6.74.21 2.16 1.04 6.51-1.68 6.7-.22zm68.37 24.5c2.91.44.19 3.1-1.81 2.44 1.46-.97-.13-1.4 1.81-2.45zm-70.6-25.86c-1.1 1.23-2.69.66-4.19.44 1.39-.91.58-3.15 2.3-2.92-.26.98 1.46 1.61 1.89 2.47zm1-3.34c3.27.4 1.29 3.28-1.14 2.67-.2-.8-1.07-1.47 1.11-2.63zm-28.52-11.07c2.32 1.57 3.39-1.3 5.61-.06-2.65 1.72-5.64 2.17-8.59 2.78zm27.79 8.38l-2 1.76-2-.69c.92-1.63 2.54-1.03 3.97-1.08zm12.42 4.83c2.58-2.25 2.92.65 6.24.3-1.86.9-5.74.96-6.27-.31zm8.09.32l2.7.93c-.91 1.43-5 2.63-4.71.84 1.73.5 1.87-1.44 1.98-1.78zm68.28 23.1c-1.31.43-2.85-.18-4.3-.38 8-1.72 16.09-3.36 24.56-3.12-1.79 2.86-4.91-.47-6.83 1.76 1.71.57 3 0 2.12 1.43-2.56.42-1.81-1.21-4.59-1.74-2.13 2.1-5.23-.1-7.32 2.19 1.62.06 3.07-.57 5 .62-1 1.14-2.3.48-3.18 1.91-2.22-.18-.13-2.72-2.79-1.68-1.51 1 2.17 1.3 0 2.47a5.72 5.72 0 01-3.64-.14c-.21-1.05 1.92-2.43.94-3.33zm-77.61-28.14c3.25 1.38 5.59-.69 8.62-.12-1.19 1.64 1.18 2.4-2.17 3.56-3-.4-1.13-1.68-1.88-2.48-1.66.72-3.54.6-5 2-2.43-.58-1.17-1.75.4-2.97zm-25.09-10.21c-1.67 1.5-3.24 3.31-5.53 2.53 1.79-.94 3.24-3.21 5.5-2.54zm51.41 19.27l-2 1.77-2-.7c1.06-1.23 2.35-1.83 3.97-1.08zm15.62-11.24a3.58 3.58 0 013-.19c-3.81 2.52-7.12-1.33-9.57-1.47l-2.53 2.21c-5-1.21-9.44 0-13.8 1.41a5.21 5.21 0 01-2.68 4c-1-2.56-2 1.3-4.88.17 3.28-2.47 6-4.06 7.56-6.64 4.58 2.3 10.47-2.22 15.17-3.41-.37.77-3.41 2-1.86 2.44 1.92-1.35 4.18-1.36 6.08-2.84-.87-.21-2.43.26-2-.7 2.47.75 7.17-2.41 7.91-.35-3.13-.39-6.9 3-3.91 4.22-.31-2.5 7.77-2.52 8.24-1.47-2.21.31-8.82.42-6.76 2.61zm1.55-3.81c-.24-.74 2.1-2.12 3.73-2.42-.81 1.27 2.73-.22 3.86.74-2.34 1.6-5 1.47-7.62 1.67zm-68.39-3.54a24.49 24.49 0 019-1.37c-2.69 1.13-7.61 3.08-9.03 1.36zm27.41 7.32c-1.28-.17-2.16 1.2-3.72 0 .38-1.96 4.53-1.08 3.69-.01zm11.49-1c-1.18 1.2-5.47 2.48-5.4.62 1.89.21 3.46-.86 5.37-.62zm-24.66-9c.28 1-2.55 2.31-4.58 1.53 1.23-1.5 2.88-1.52 4.55-1.52zm115.11 36.83c-.12 1.6-3.43.8-2.39 2.83-3.11-.47.4-3.53 2.39-2.83zm6.3-1.33c.34 1.5-2.72 1.51-4.07 3.44l-2-.75c1.95-1.36 3.73-3.36 6.06-2.66zm-80.75-29c-1.37.53-5.47 2.56-5.4.61 1.87.06 3.39-1.28 5.4-.61zm-13.85-8.47c-1.14 1.23-2.43 1.83-4.07 1.08 1.14-1.22 2.44-1.82 4.07-1.08zm38.94 8c1.61-.11 3.11-.64 4.73-.74-1.65 1.47-1.38 2.76-4.27 2.76.91-.86-1.81-1.13-.46-2.04zm13.12 1.1a6.46 6.46 0 003.19.55l-1 .87c.38.17.72.35.15.67-3.63-1-.48 1.59-1.9 2.4-1.49-.28-2.67.78-4.36-.37 2.45-1.58 2.25-2.71 3.92-4.14zm-8.48-5c.9.44 2.65.75 2.16 1.41-2.91-.19-5.22 2.21-8.46.62 2.79-1.54 4.85-.33 6.31-2.03zm192.17 78.36c2.17.7.86 1.77-.73 2.86a5.22 5.22 0 00-2.36-.44c-.19-.9 1.59-2.28 3.09-2.42zM1928 1250.81a6.88 6.88 0 016-.1c-1.55 1.48-1.16 4.07-4.79 3.07 1.4-1.6 2.39-2.9-1.21-2.97zm-54.68-24.64c-2.25.38-3-.7-2.81-1.67-3.79 2.26-11.22 2.7-14 .44a23.69 23.69 0 0014.07-2.9c-.56 1 .4 1.81 1.78 2.53-.12-1.49.06-1.64 2.59-2.16 1.46.36.62 1.08 1 1.6.81-2 1.16-.79 3.41-1.23-2-1.13 1.58-2 3.41-1.23.3 1.16-2.33 1.23-3.64 3-4.25.29-4.76-.66-5.83 1.62zm-51.88-21.75c3.49.84 4.94-2.81 6.68-3.31 3 1.28-.79 1.71-1.58 3.81-1.51-1.15-2.35.58-3.42 1.32-1.71-.41-2.43-.98-1.7-1.82zm49.36 15.83c2.7.21 5.28-.17 7.93-.18a12.63 12.63 0 01-5.12 1.85c.96-.7-4.88.52-2.83-1.67zm-26.59-14.06c.27.89-1.92 3-3.79 2.34 1.28-.61 2.22-2.83 3.77-2.34zM1839 1200c-1.1 1.5-2.7.84-3.81 2.35 1.77.56 3.12-.07 2.2 1.4-2-.18-6.66 1.4-7-.58 2.35-1.48 4.54-3.72 8.61-3.17zm46.68 21.43c1.4 1.45 4.85-1.71 4.36.38-1.54.62-5.63 1.96-4.32-.39zm-15.15-10.6c-2.27.88-4.7 1-7 1.8.02-.98 6.47-3.46 7.04-1.81zm-24.9-9.07a2 2 0 00-.89 1.54c-1.6-.44-6 .64-5.78-.84 2.45.62 4.18-1.82 6.71-.71zm64.76 15.15c-3.45 1.53-9.32 2.48-13.92 3.55 1 .65 2.66 1.22 1.08 2.28-1.34-2.75-2.65-.3-6.33-1.11 1.89-1.68 3.64-2 2.18-4.21 4.77 3.14 11.05-1.12 17.03-.52zm169.48 79.6c-1.95-.38-3.6 1.86-5.68.48 1.52-.69 5.81-2.15 5.72-.49zM1969.35 1245a2.3 2.3 0 003.51-.46c2.66 1.77-2.93 5-6.41 4.33 3.17-1.93 2.97-2.01 2.9-3.87zm-111.53-44.41c-3.42 1.36-7.21 1.06-10.8 1.69l1.57-1.3c3.2.39 6.03-.86 9.23-.43zm64.89 26.21c-2.41.2-7.75 1.58-8.55-.26 2.55.46 7.66-2.1 8.55.22zm-7.24-6c3.44 1 6.35-.67 9.75.09-3.07 2-9.73 2-11.33 1.17a1.24 1.24 0 001.58-1.3zm-53-21.63c-.86.7 1.58.91 1 1.59-1.75-.45-3.07 1-4.94.07 1.17-1.15 2.38-2.18 3.93-1.7zm11.61-.78c-1.71 1.68-3.73 1.85-5.84 1.62 1.9-.71 3.66-2.14 5.83-1.66zm41.12 17.91c3.08-2 4.08-.43 6.88.83-1 .71-1.5 1.36-1.47 1.93l-1.31-.52c.77-1.84-1.03-2.2-4.11-2.28zm-48.14-21.71c3.29-.1 6.17-2.12 9.75-.83-3.06.82-1.57 2.88-4.22 3.47-3.41-.2-.61-3.14-3-2.34-.72.93 1 1.48-1.29 2.65-1.92-.78-1.3-1.93-1.25-2.99zm15.4 2.49c0 .71-.52 1.49-2 2.42-1.94-1.38-3.21.37-5.08-.61l1.06-.87c2.11.98 2.96-.84 6.01-1.02zm53.1 17.2c-2.82.32-9.91 4.59-9.52 1.27 3.44.99 6.03-2.5 9.51-1.31zm18.78 3.08a7 7 0 01-4.61 1.31c-.22-1.05 2.66-2.24 4.6-1.35zm-.07-3.83c-3.79-.26-12.33 3.55-12.77 0 4.07 1.16 10.61-1.82 12.76-.04zm22.17 5.77c-1.37 1.44-3 1.39-4.61 1.31-.2-1.12 2.75-1.84 4.6-1.35zm-5-4.57c3.83 2.45 6.8-.39 10.35.37-1.6 2.37-8.49 1.52-12.37 2 1.58-.95-.02-1.44 2.02-2.41zm1-1.52c3.8 1.37 3.39-3.09 7.54-2.05-3 1.6-1.5 1.06-2.58 2.79-1.76.29-6.4 1.36-5-.78zm20.32-1.73a5.73 5.73 0 01-5.2 1.61c-.17-1.3 3.03-3.19 5.16-1.65zm-44.23-20.55c-1.69 2.1-3.87 1.3-5.88 1.49 1.89-.67 3.69-2.07 5.84-1.53zm-1.44-1.2c-1.06 1.22-5.4 1.47-4.92 0 1.7.56 2.98-1.61 4.88-.04zm9.66 2.55c-.9.82 1.88 1.14 1.55 1.89-1.24 1.17-2.57 1.71-4.14.89 1.77-.89-.72-2.91 2.55-2.82zm-1.82-7.09c-.17.59-2.31 2-1.28 3.32 1.28-.89 2.83-.25 4.38.46-2.85 1.32-5.49 3.79-8.72 2.9 4.22-2.3-.39-7.54 5.58-6.72zm60.69 29.68c-.84 1.61-4.91 1.52-4.2.11 1.41.33 2.58-1.4 4.16-.15zm-50.81-25.76c-1.24 1.18-2.58 1.72-4.15.9 1.19-1.21 2.54-1.75 4.11-.94zm42.58 19c2.76-.64 7.93-1.72 9.09.05 2-1.38 6.35 0 6.3-2.44l2.56 1.11c-1.35 1.46-2.89.74-2.73 2-3.53-.49-5.31-.31-5.75 2-2.65-.4-.7-1.31-1.48-1.92l-2.73 2c-3.29-1.56-.49-2.91-5.3-2.81zm21.72-.3c3.59 1.66-3.44 3.93-5.66 2.7.62-.65-.14-1.14.35-1.78 3.8-.67 3.06 2.15 5.27-.93zm6.23-3.12c3.1.93.28 2.52-1.3 4-1-.4-1.89.82-3 0 1.78-2.58 3.18-1.34 4.26-4.01zm15.85 6.25c-1.69.84-3.37 1.86-5.28.93a4.91 4.91 0 015.24-.94zm175.07 69.27c1.34-.75 5.6-1.6 5.15.17-1.55-.78-3.46.59-3.38 1.49-1.09-.55-1.73-1.1-1.81-1.67zm-143.52-77.59c3.69 1.72-5.15 5.08-5.19 2.16 2.64.66 2.04-1.65 5.15-2.17zm152.63 76.6c3-.78 9.07-2.24 10.3.34-4.16-.88-1.67 1.81-3.34 2.87-2.2-1.19-1.44-2.48-1.83-3.73-1.77 1.72-5.02 2.45-5.17.51zm17.7-.93c-1.53-.25-3 .8-4.58.15-.49-2.14 6.57-1.93 4.51-.16zM2078 1175a7.63 7.63 0 01-6 .52c1.75-1.72 3.85-1.09 6-.52zm10.69-3c1.3-2.81 2.89-.32 4.85-.41-1.76-1.68 1.09-3.22 2-4.33 3.12 1.23-3.3 3.28-.19 4.51.59-.62.19-1.17 1.66-1.87.89-.1 4.83.75 3.84 1.75-3.6-.87-15.66 6.59-13.33 1.14-2.45.19-7.88 2.22-8.55 0 1.25-1.4 8.09-2.39 9.67-.79zm3.3-3.74c-2.91 1.49-6 1.58-9 1.81 2.88-1.25 5.81-2.67 8.95-1.8zm198.73 103.23c2.49.75 8-2.42 8.59.16-2.74-.21-7.76 2.43-8.64-.15zM2102.74 1166c.86.5 2.56.94 2 1.56-3.12-.8-4.38-.34-5.36 1.5-2.12-1.82 1.22-2.27 3.36-3.06zm11.86 2.79c1.51 1.19 2.77-1 4.33.67-1.64.86-6.01.85-4.33-.71zm-5.51-7.14c1.62.55 2.26 1.19 1.39 2-.84-.28-1.71-.9-2.48-.48-.59.24-1.16.77-1.8.5zm210.23 108.88c-.6.58-.3 1.15-1.73 1.73-1.33-1.38-2.67-.5-4-1 1.91-1.08 3.84-1.88 5.73-.77zm-182.92-104c-.34.7 2.75.59 3.11.84.68-.61-.05-1.14.48-1.75 3.18-.49 4.4 1.32 2.06 3-3.27-.1-6.48.51-9.77-.08 2.28-.99 3.03-1.98 4.12-2.06zm193.18 106.69l-2.26-1.36c1.78-1.66 4.94.23 2.26 1.31zm-177.28-106.34c1.78-.67 3.59-1 5.48 0-1.74 1.28-3.58 1.14-5.43.68.32-.24.59-.49-.05-.68zm202.62 100.61c1.31.49 2.67.1 4 1-.86.41.52 2.43-1.77 1.73 1.19-.91-.15-1.73-1.69-1a1.62 1.62 0 01-.06 2.07c-1.13-.67-2.31.51-3.41-.67 2.85-1.07.01-2.09 2.93-3.13zm-184.6-105.15c2.69.51 8.45-1.18 9.18.47-1.85-.38-3.63.57-5.45.68 1 .66 2 .25 3.09.85-1.65.72-4.25 1.33-4.11 2.66a10.46 10.46 0 01-2.71-4.66zm196.06 105.06c-.88.81-.27 1.61-1.82 2.42-1.31-.95-.91-3.42 1.82-2.42zm-183.21-104.12c3.06 1.31 2.88 2.81 2 4.35a5.68 5.68 0 00-2.45-.53c1.28-1.35-2.52-2.38.45-3.82zm188.29 105.8c-1.37 1-2.72 1.38-4 .38 1.35-1.01 2.71-1.38 4-.38zM2191 1161.77c-3.23.58-6.44 1.33-9.74.59 3.44-.59 4.1-1.27 6.64-1.44-.32.36-.15.7.67 1 .82-.43 1.6-.82 2.43-.15zm4.92 1.08c-.68.61.69 1.11.67 1.68-3.36 1.68-6.81 1.6-10.3 1 1.9-1 .42-1.87 2.31-2.9 2.49.37 4.89-.33 7.4.22zm189.94 104c-2.13 1-3.7 2-3 3-1.67-.92-3.44.12-5.13-.44 3.32-2.17-1.59-1.36.13-2.74 2.62 1.4 5.39-.44 8.03.21zM2200 1158.8c1.3.5.7 1.11 1.9 1.61.6-.38.2-.7.56-1.07 2.67.65 1.22 1.54-.51 2.45-.83-.3-1.66-.94-2.46-.54.62.42-.26.93-1.15 1.45l-1.87-.92c3.22-1.71 2.69-1.23 3.53-2.98zm8.71 4.42c2-.94 4.05-.08 6.09-.22-1.94 1.79-5.8 2.25-6.05.22zm13.31-3.23c1.81-.33 3.62-1.22 5.47-.54-1.58 1.7-3.24.5-4.86.86.35.34 1.2.65.64 1a2.13 2.13 0 01-1.21-1.31zm14.05 1.91c-2-.65-4 .73-6.09-.47 1.68-.98 6.45-1.21 6.13.47zm-1.2.73a1.88 1.88 0 001.81-.41c1.58.63 2.18 1.31 1.27 2-1-.38-2 0-3-.25.78-.45-.53-.86-.04-1.34zm14-.15c-3.22 1.8-6.45 1.73-9.7 1 3.23-1.61 6.5-.2 9.73-1zm1.77-3.85c-1.14 2.45-5 2.27-7.89 2 2.65-1.63 5.25-2.82 7.92-2zm15.25 3.94c.62.55.3 1.14 1.83 1.65-2.62 1.38-5.24 2.16-7.89.63 3.17-.27 6.03-1.35 6.09-2.28zm35.89-6c-1.43 1 1.89.1 2.42 1.35-1.09 1.11-5.18 0-4.25-1 1.32.55.7-.77 1.86-.36zm251.1.8c1.55.64 3.22.38 4.65 1.73-2.65 1.39-5.1 1.42-7.57 1.51l-1.66-1.16c3.55-.53 2.97-.27 4.61-2.09zm19.74 3.23c-2.4-1.86-6.32.77-5.19-2.13 1.38.91 6.05.33 5.22 2.12zm210.28 122.11c-5.87 1.7 5.37 1.4-1.12 4-1.54-1.71-1-1.76-3.49-2.23.71-.85 2.26-3.14 4.64-1.78zm-6.76 3.26c-.66-.45-1.23-1.23-2.08-1-1 .59-.42 3.16-3 2.38-.24-.84 1.37-1.44.07-2.44 3.1.1 3.48-2.78 6.56-2.57.39 1.32 1.23 2.71-1.52 3.66zm-143.61-124.28c2-.84 3.72-.21 5.51.07-.17 1.18-2.72.65-4.68 2.07-1.93-.83.27-1.38-.8-2.15zm158.94 121.86c1.3 1.34 0 2.32.17 3.51-1.3-.89-3.39 1-4.51-.62 2.08-1.52 2.37-1.24 4.37-2.9zM2645 1163.86c-2.83-1-2.47 1.39-4.94.17-.4-.84 6.18-2.36 4.94-.17zm148.06 120.25a2.7 2.7 0 013.39.47 2.84 2.84 0 01-2.64 1c.73-.34.01-.91-.71-1.47zm30.76-109.24c-1.88-1.37-4.71.48-6.69-.58 2.4-1.54 7.4-1.13 6.73.58zm9.78.78c-2.95-.65-6.18-.27-8.87-1.71 3.44-.94 6.46-.58 8.91 1.71zm4.68-1l-2.79.94-1.49-1.3c1.84-1.11 3-.04 4.32.39zm171.36 86.51c1.41 1.55-.31 2.28-2.46 3-3 .34-7-.54-11.77.1-.42-.56-1.37-1.23-.63-1.55 3.48-1.03 9.98-1.35 14.9-1.52zm15.44 3.32c.69.88 1 1.66.32 2.23-3.93-.55-8.18-.28-11.85-1.39 3.96-.47 7.63-.32 11.57-.81zm-75.89-78.12c-.91 1.22-5.79 1.72-7.82.55 3.04-1.26 5.35-.6 7.86-.52zm94.25 78.89c-5.59.63-10.11.31-13.52 2.53l-1.72-1.84c3.71.06 9.34-3.36 15.28-.66zm-48.75-81a7.36 7.36 0 013.36-.38c2.47 2.16-3.12 2.69.58 5.09-2.29-.15-5.06 1-6.65-1 3.9.81 5.81-1.22 2.75-3.73zm90.4 91.68c1.3 1.27-1 1.69-1.16 2.61-1.1-.8-2.79-.29-3.53-1.92 1.71-.48 2.86.2 4.73-.71zm-11.7-31.89c1.46.77 3.51-1.29 4.59-1.79 2.19 1.24-.08 1.42.29 2.23a1.66 1.66 0 011.58.73c-3-.31-5.38-1.18-5 1.33a1.79 1.79 0 01-1.42-2.54zm-10.38-36.6c-1-1.27-3.16.36-4-1.29 1.73-1.21 5.46.23 4.04 1.27zm16.37 3.88c-3.38.35-6.72.63-9.19-1.1 3.01.54 6.81-.7 9.23 1.08zm11.4 3.43c-1.84.27-3.7.57-4.68-1.12a4.85 4.85 0 014.72 1.1zm1.72-6.79c1.09 1.41 1.69 1.55 2.34.56 2.2 1.69-3.6 1.83-4.09.47a3 3 0 001.79-1.05zm98.31 38.17c-.59 1.17-3.9 1.17-5.56.66.47-.89 4.38-2.07 5.6-.68z" fill="#39b54a" fill-rule="evenodd"/><path d="M1775.18 1211.62c-.55.78 1.65 0 .86.91 5.72-4.43 13-3.12 19.11-5.89-5.89-.24-11.4 1-16.91 2.32-.48.56.82.8 1.55 1.14-1.57.4-2.94 1.52-4.61 1.52zM1442.22 1429.32c2.17.2 3.13-1.88 4.92-2.44-1.85.44-3.89.5-4.92 2.44zM1534.34 1391.07c-1.11 1-.58 1.4-.88 2.1 1 .09 1.55-1.07 2.25-1.76a2.62 2.62 0 001.66 1c.75-1.66-1.31-1.1-3.03-1.34zM1429.55 1369.56c-2 1.14 3.56-.94 4.25.82.58-1.06-.4-1.61-.59-2.42-2.91-.17-.75 1.77-3.66 1.6zM1475.14 1377.08q-1.47 1.58.93 1.92c-.4-.84.74-1.58 2.26-1.82.72-1.18-2.33.17-3.19-.1zM1464.85 1371.43c-.47-.47.17-1.29-1.33-1.43-1.14 1.1-1.4 1.92-1.26 2.62 1.37.22 1.79-1.54 3.29-1 .31-.62-.49-.46-.7-.19zM1564.52 1393.29c2.6.93 1-1.21 1.6-1.91 1.21-1.19.63.95 2.73.7 2.07-2.71 5.15-3.07 8.38-3.07.24-.79 0-1.46.25-2.25-1.94 1.68-6.83 3.43-11.23 3.49-.57 1.82-2.19 1.91-1.73 3.04zM1455.6 1365.45c6.48-2.59 11.17-3.51 16.69-7.51-1.12-.36-2.5.47-2.11-.44-2.72.17-1.19 1-3.4 2.18-.37-1.76-8.46 2.33-6.84.32-2-.77-4.07 3.53-4.34 5.45zM1597.64 1396.11c2.17.83 8.28-1.15 11.43-2.77-3.82.92-7.64 1.76-11.43 2.77zM1353 1337.76c.67 1.14-1.6 1.21-2.35 3.13 4-.71 3.21-1.74 4.56-2.78.29-.82-1.07.06-2.21-.35zM1469.92 1360.92c1.84-1 4.25-.82 5.59-2.89-2.73-.84-3.73 1.97-5.59 2.89zM1583.42 1380.72c-1.28 1 .72 1 .14 1.78 1.51.23 2.44-.92 3.66-1.38.57-1.26-2.22 1.15-3.8-.4zM1419.76 1334.67c.37-.5-.56-.56-1-.78.67-1.28 2.18-.86 2.72-2.41-2.47.3-5 .43-6.41 2.9 2.5-.01 2.83-1.11 4.69.29zM1491.49 1333.56c2.47-1.75 2.81 0 5.89-1 .61-1.91.34-1.84 1.09-3.26-2.09 1.58-6.83 2.84-6.98 4.26zM1647 1369.39c-1.46-1 2.67-1.3 1.44-2.52-1.65-.67-2.17 1.66-3.94.63 1 1.24-1.69 2.67 1.48 4a5.81 5.81 0 014.13-1.77c.79-1.17-2.32-.04-3.11-.34zM1657.35 1368.32c3 .46 4.59-2.65 7.92-1.17 1.29-1.67-1.84-.5-1.15-1.53-2.24.95-4.69 1.38-6.77 2.7z" fill="#39b54a" fill-rule="evenodd"/><path d="M1668.27 1363.91c-1.25-.3-.88-1-2.25-1.26a16.85 16.85 0 01-9.47 1.91c1.59 2.63 6-.85 9.33 1 1.22-2.15 3.45-1.5 5.73-.65 3.06-1.3 2.75-2.08 5.22-3.77-1.22-.06-2.33.18-3.54.13-1.32.91.66 1 0 1.78-.48.34-1.11.27-1.53.74-.87-.52.78-1.64-1.82-1.73-1.36.46-1.81.94-1.67 1.85zM1459.55 1281.63c-.35.6.48.43.73.16 1.06.17 2.12.34 1.73.94 1.12.06 1.69-1.12 2.46-1.84-1.76-.02-3.25.56-4.92.74zM1519.56 1274c-.6 1.11 8.63.39 10.71-2.26-1-.06-4.15 2.17-3.75.31-2.63-.05-3.93 3.04-6.96 1.95zM1551.12 1270.77c2.66 0 4.76 2.09 7.49-.51-1.71-2.41-6.57 1.28-7.1-1.77-2.35 1.34 1.96.94-.39 2.28zM1682.62 1292c-.75 1.61 2.36 0 3.2.36.94-.73 0-1.54 1.39-1.37.52-.35.16-.52-.22-.67l-1.37-.41c.8.34-1.95 3.07-1.38 1.38-1.24-.2-.24.94-1.62.71zM1618 1256.93c.48 1.22 5.34-.36 7.48-.36.06 2.13 5.31 2.36 7.23 2.57-.81-1.84-3.12-3.32-4.89-4.94.78 3.45-3.89.4-7.71 1.51.13.89-.36 1.35-2.11 1.22zM1639.5 1258.59c1.27 1.17 6.84-.84 9.76-.91 1.33-1.64-4.26.4-3-1.44-.9.68-3.76 2.76-6.76 2.35zM1631.81 1254.68c-2 1.42.68 1.11 1.4.39 1.22.3 1.47.85 1.17 1.52 1.08.08 1.92-.53 3-.37-1.28-.31-2.86-2.31 1.4-1.42.43-.71-1.36-.88-2.32-1.24a4.87 4.87 0 01-4.65 1.12zM1662.19 1249.32c-1.08-.09-1.94.51-3 .32-2 1.28 1 1.45-1 2.72 1.81-.54 1.58-1.36 4-3.04zM1683.36 1228.92c.19 1.27-.7.58-1.95 1.86 2.51.28-.82 1.85 2.52 1.94l1.45-1.38c-1.4-.64-2.75-1.37.76-1.61 1.08-1.24-1.87.27-2.78-.81zM1734.1 1243.12c-1.65-.1 0 .94.68.22.59.59.24 1.37-.58 2.25 2 0 3.81-2.86 1.55-3.15a1.76 1.76 0 01-1.65.68zM1813.13 1271.83c.86.19.87-.31.5-.44 1.44-1.42 3.92 1.12 5.11-1.26-2.36-1.35-4 .27-6 .35-.33.52 1.03.77.39 1.35zM1746.19 1213.37a9.11 9.11 0 00-7.34.77c3.32 1.31 5.92.18 9.09 1 .58-2.63 5-2.16 7.77-3.69-.55.26-9.42-.11-9.52 1.92zM1754.57 1214.19c3.25-.39 6-2.7 9.51-1.91-.49-4 9.63-1 13.47-3.55-.11-.56-1.58-.89-1-1.58-2.52.78-4.66 3-7.88 1.07-3.44 2-7.44 1.84-11.23 2.56-.46.68 1.31.92 2.26 1.32-1.7.99-3.77.13-5.13 2.09zM1745.87 1207.76c1.88 3.37 15.37.36 17.76-1.78-5.63.89-13.26 4.09-17.76 1.78zM1791.74 1203a55.62 55.62 0 007.35-.61c-.39-1.39-5.43-.09-7.35.61zM1824.4 1198.59c4.1.63 13.09-.79 18.84-2.06-3-1.51-5 1-6.49-1.09.14 2.53-5 .35-6.89 2.53-2.48-.52 1.13-2.7-2.35-2 1.49 1.54-.07 2.24-3.11 2.62zM1822.39 1195.43c.48 1.84 5.23-.63 7.35-.61 1-1.5-2.38 0-3.39-1.16-1.73 1.79-1.06 2.05-3.96 1.77zM1844.43 1196.34a41 41 0 0012.86-1c-2.91-3.84-9.08-.34-12.86 1zM1909.92 1189.08c1.85.06 3.53-.59 6.57-1.23l-2-.78c-1.3 1.85-3.19.56-4.57 2.01zM1943.41 1179.36l-3.27 2.54c3.19.1 2.69-2.65 6.46-1.91 1.12-1.07-2.39-.22-3.19-.63zM1978.69 1176.21c1.59 3.09 3.32-2.12 6.94 1a2.09 2.09 0 011-1.5c-2.86-1.29-5.27.44-7.94.5zM2036.17 1168.82c-1.63-.24-.18.94.64.27 1.18.69-.21 1.65-.3 2.47 2-.08 3.86-1.92 6-.66 2-3.68 5.59-1.85 8.9-2.6 2.65-.92-1.66-1.24 1-2.16-3.33 1.23-7 .07-10.21 2-1.24-.44-.68-1.09-2-1.52.2 1.11-2.35 2.06-4.03 2.2zM2135.41 1161.37c3.36 1.35 6.37-2.3 9.75-.6.6-.61-1.1-1.08-1.94-1.6-2.51 2.26-5.33-.07-7.81 2.2zM2199.28 1155.06c.09 1.26 7.84 1 7.95 0-2.66-.19-5.23.71-7.95 0zM2260.43 1159.67c.9-1 .66-1.86 1.19-2.8a7.51 7.51 0 00-4.87.86c1.23 1.12 2.44-.13 3.65-.13 1.14.66-3.88.89.03 2.07zM2495.54 1151.41c-.56 1.83 4.37.67 5.92 1.65.66-.2.4-.44.08-.68l-1.13-.74c-1.74.94-3.24-.26-4.87-.23zM2685.71 1287.17c3.14.59 6.45.39 9.51 1.37 1.75-1.88 5.76-.48 8.7-.11.42-.3.16-.67.79-1-.52-.29-.2-.49.15-.68-6.54.84-12.59-.53-19.15.42zM2852.62 1166.9c3.44-.35-.2-1.9 3.24-2.26-.54-.31-1.2-.2-1.7-.64l-1.41.46c2.93 1.32-3.04 1.13-.13 2.44zM2879.08 1173.14c2.78 2.47.41-2.64 3.53-1.17 1.47-1-2.33-1.66-3.59-.61 1.22.8 1.38 1.41.06 1.78z" fill="#39b54a" fill-rule="evenodd"/><circle cx="582.02" cy="582.02" r="582.02" fill="#58595b"/><path d="M582 1151.45c-152.1 0-295.1-59.23-402.65-166.78S12.59 734.12 12.59 582s59.23-295.1 166.78-402.65S429.92 12.59 582 12.59s295.1 59.23 402.65 166.78 166.8 250.55 166.8 402.63-59.22 295.1-166.78 402.65-250.55 166.8-402.67 166.8zm0-1133.37c-311 0-563.94 253-563.94 563.94s253 564 563.94 564S1146 893 1146 582 893 18.08 582 18.08z" fill="#fff"/><path d="M582 996c-228.23 0-413.93-185.72-413.93-414s185.7-413.95 414-413.95 414 185.7 414 414S810.28 996 582 996zm0-823.91c-226 0-410 183.91-410 410S356 992 582 992s410-183.93 410-410-183.93-409.94-410-409.94z" fill="#fff"/><circle cx="582.02" cy="582.02" r="387.12" fill="#fff"/><path d="M178.61 785.73l8.13 14.18-52.55 30.14 18 31.43-11.91 6.83-26.16-45.59zM218.11 849l10.17 13.32-42.21 67.19L175.78 916l9.74-14.51-16.87-22.09-16.65 5.42-10-13.16zm-37.19 26.43l11.69 15.3 16-24-.13-.16zM244.73 883.16l25 24.46c10.12 9.89 13.76 19.87 4.08 29.77-5.17 5.28-11.12 6.3-18.06 4 4.73 8.27 3.05 16.38-3.43 23-10.55 10.8-24.22 6.46-33.82-2.93l-25.74-25.16zm-31.4 55.48l12.5 12.23c4.54 4.44 10.09 7 15.47 1.45s4.08-10.86-1-15.81l-12.73-12.45zm22-22.55l11.83 11.58c4.17 4.07 9 5.13 13.33.66 4.88-5 2.1-9.89-2.07-14l-10.93-10.7zM292.18 928.62l44.73 33-8.15 11.06-31.58-23.28-9.45 12.81 29 21.37-7.54 10.22-29-21.36-10.81 14.66 32.26 23.77-8.16 11.06-45.41-33.47zM341.05 963.88l14.25 8-29.59 52.85 31.6 17.7-6.71 12-45.86-25.67zM380.48 1040.5c-3.7 9.16 2 15.62 10.11 18.9 5.3 2.14 14 3.87 16.88-3.17 3-7.53-7-12.81-15.86-19.66-9.22-6.64-17.79-15.15-12.64-27.9 5.73-14.18 21.74-15.46 34.19-10.43 14.38 5.81 25.07 17.42 18.64 33.35l-14.67-5.93c2.83-8.4-2.07-13-9.4-15.92-4.83-2-11.24-2.19-13.59 3.6-2.14 5.31.83 7.41 16.35 18.73 4.65 3.23 18.63 12.81 12.35 28.34-5.1 12.65-18.77 18.13-37.59 10.53-15.25-6.16-26.59-19.5-19.44-36.37zM495 1092.7c-6.94 4.58-14 6.29-22.24 4.67-13.17-2.57-22-12.68-19.33-26.47 2-10.22 11.12-15.65 20.48-18-3-5.58-5.17-10.45-3.91-16.89 2-10.11 12.45-14.86 22.26-12.94 11 2.15 18.84 9.94 16.61 21.38-1.68 8.58-8.4 13.11-16.53 15.66l7.14 13.38a24.77 24.77 0 004.36-8.17l12.56 2.46a35.56 35.56 0 01-10.56 16.6l11.45 20.17-17.78-3.48zm-15.26-28.86c-5.63 1.12-11.42 4.13-12.57 10.05-1 5.32 3.13 10.59 8.54 11.65 5.21 1 9.41-.92 13.52-4zm11.32-30.84a6.49 6.49 0 00-7.79 5.15c-.9 4.6 1.48 8.15 3.59 12.05 4.58-1.75 8.45-3.65 9.49-9a7 7 0 00-5.29-8.2zM553.8 1032.89h33.51c18.63 0 25.7 11.77 25.7 23.84s-7.09 23.83-25.72 23.83h-17.17v26.64h-16.35zm16.32 35h12.7c7.5 0 14.36-1.66 14.37-11.14s-6.87-11.13-14.36-11.14h-12.7zM635.8 1029.72l16.59-2.3 37.75 69.78-16.8 2.34-7.85-15.62-27.49 3.82-3.5 17.19-16.39 2.28zm4.72 45.37l19.07-2.64-13-25.73h-.2zM733.21 1033.59c-3.16-6.78-11.53-10.19-19.23-7.95-14.09 4.12-15.89 17.65-12.24 30.14 3.47 11.9 12.27 22.35 26.36 18.23 9.59-2.8 13.09-10.87 11.52-20.71l15.19-4.44c3.62 18.36-5.27 33.21-22.86 38.34-22 6.42-39.89-6.25-45.9-26.84-6.19-21.18 2.09-41.49 24.08-47.91 15.59-4.55 31.57.76 38.28 16.7zM745 1003.56l14.83-6.88 13 28 13.38-40.16 18.51-8.58-14 38.84 47.81 27.4-18.6 8.62-34.36-20.9-4.57 12.48 10.07 21.72-14.82 6.9zM822.86 963.51l14-9.18 64 47-14.2 9.29-13.76-10.77-23.26 15.22 4.18 17-13.82 9.09zm23.66 39L862.63 992l-22.77-17.69-.17.12zM942.85 953a25 25 0 01-8.41 21.2c-17.08 15.27-38.69 11.55-53-4.44-14.71-16.45-16-38.34 1.08-53.61 11.33-10.12 28.29-12.86 40.85-1.32l-11.65 10.41c-7-4.9-14.22-4-20 1.16-10.94 9.78-6.73 22.77 1.94 32.47 8.26 9.24 20.7 14.87 31.64 5.09 8-7.15 8.75-15.36 2.51-23.75l-12.27 11-8.11-9.09 23.28-20.81 26.78 30-7.76 6.94zM911.62 890.29l11-12.14 55.19 49.78-11 12.14zM928.39 872.89l9.55-13.14 58.58 4.25.12-.17-40.31-29.33 9-12.37 60.1 43.75-9.62 13.21-58.43-4.29-.12.17 40.23 29.29-9 12.37zM1051.87 799.48a25 25 0 01-.31 22.81c-10.53 20.34-32 24.56-51.1 14.71-19.6-10.15-28.6-30.15-18.07-50.49 7-13.5 21.86-22.1 37.7-15.78l-7.18 13.87c-8.3-2.07-14.73 1.29-18.31 8.22-6.75 13 1.81 23.68 13.37 29.66 11 5.69 24.63 6.53 31.38-6.5 4.93-9.53 2.71-17.48-6.11-23.09l-7.56 14.61-10.81-5.6 14.34-27.74 35.7 18.46-4.78 9.25zM103.21 415.48l-7.44 21-13-4.59 20.35-57.38 13 4.59-7.45 21 57.09 20.24-5.46 15.4zM108.32 362.48l7.62-14.48 25.23 13.3 14-26.62L130 321.4l7.62-14.46 65.77 34.65-7.62 14.46-28.37-14.94-14 26.61 28.37 14.95-7.62 14.46zM148.11 290.83l32.95-44.77 11.07 8.14-23.26 31.61 12.83 9.44 21.34-29 10.23 7.53-21.35 29 14.68 10.8 23.75-32.28 11.07 8.15L208 334.88zM211.21 212.44l12.15-10.93 19.08 21.21 22.37-20.12-19.08-21.21 12.15-10.93 49.71 55.26-12.15 10.93L274 212.82l-22.37 20.12 21.44 23.84-12.15 10.93zM300.77 138.77c19.28-12.36 40-5.26 51.94 13.32 11.57 18 9.36 39.87-9.92 52.23s-40 5.26-51.59-12.79c-11.91-18.53-9.7-40.4 9.57-52.76zm34.61 54c12.35-7.92 10.26-21.41 3.57-31.84-7-10.95-18.41-18.49-30.76-10.57s-10.26 21.41-3.24 32.37c6.69 10.4 18.05 17.94 30.43 10.02zM423.66 130.44c8 18.44 1 32.13-17.28 40-18.44 8-32.85 3.77-40.9-14.86l-18.34-42.42 15-6.48 18.33 42.41c3.23 7.46 8.32 14 20.45 8.74 10.7-4.63 12.16-10.7 7.74-20.92l-18.34-42.4 15-6.48zM446.79 127.3c2.54 9.56 11 11.3 19.42 9.06 5.54-1.48 13.56-5.33 11.6-12.67-2.08-7.85-13.24-6.07-24.47-6.2-11.34.22-23.34-1.49-26.85-14.72-3.94-14.77 8.09-25.42 21.07-28.87 15-4 30.5-1.11 34.91 15.49l-15.28 4.06c-2.78-8.41-9.43-9.12-17.07-7.09-5 1.34-10.3 5-8.7 11 1.47 5.53 5.11 5.42 24.31 5.16 5.65-.21 22.58-.94 26.89 15.25 3.51 13.17-4.13 25.76-23.74 31-15.9 4.23-33 .37-37.38-17.41zM492.94 65l55.17-6.73 1.66 13.64-38.95 4.75 1.93 15.81 35.75-4.36 1.5 12.59-35.75 4.36 2.2 18.08 39.78-4.85 1.66 13.64-56 6.82zM626.82 58.17c22.81 2 34.9 20.29 33 42.27-1.86 21.36-16.95 37.28-39.76 35.29s-34.9-20.29-33-41.65c1.87-21.98 16.94-37.91 39.76-35.91zM621.23 122c14.62 1.28 21.2-10.68 22.29-23 1.13-13-3.28-25.89-17.9-27.17s-21.21 10.71-22.34 23.67c-1.08 12.34 3.33 25.26 17.95 26.5zM678.57 66.58l50.83 12.07L726.23 92l-34.94-8.29-4 16.71 30.28 7.19-2.9 12.39-30.28-7.19-7.09 29.88-15.89-3.78zM804.12 135.34c2-7.2-2.08-15.25-9.37-18.58-13.35-6.09-23.56 3-29 14.82-5.14 11.27-5.31 24.92 8 31 9.1 4.15 17 .32 22.26-8.15l14.4 6.56c-9.25 16.26-25.69 21.69-42.36 14.09-20.84-9.51-26.12-30.8-17.21-50.31 9.16-20.07 28.7-30 49.54-20.53 14.77 6.74 23.39 21.2 18.06 37.65zM870.74 201.2c-11.14 16.72-26.44 18.28-43 7.26C811 197.31 806.73 182.93 818 166l25.64-38.46 13.6 9.06-25.65 38.5c-4.51 6.76-7.22 14.59 3.78 21.92 9.7 6.47 15.59 4.39 21.77-4.88l25.64-38.46 13.6 9.06zM885.87 218.91c-6.65 7.32-3.54 15.35 2.94 21.23 4.24 3.85 11.83 8.49 16.94 2.86 5.45-6-2.1-14.41-8.08-23.92-6.35-9.42-11.44-20.38-2.21-30.54 10.29-11.33 25.75-7 35.69 2 11.48 10.43 17.48 25 5.94 37.74l-11.71-10.64c5.56-6.9 2.55-12.87-3.31-18.19-3.85-3.49-9.79-5.94-14-1.31-3.85 4.24-1.79 7.23 8.85 23.22 3.25 4.64 13.05 18.46 1.79 30.86-9.17 10.1-23.89 10.51-38.91-3.13-12.17-11.06-18.2-27.5-5.65-40.85zM963.09 245.17l-14.34-17 10.51-8.85 39.21 46.59-10.47 8.81-14.34-17-46.36 39-10.52-12.5zM1025.41 304c12 19.5 4.53 40.12-14.26 51.69-18.26 11.24-40 8.64-52-10.86s-4.54-40.12 13.72-51.37c18.76-11.61 40.53-9 52.54 10.54zm-54.6 33.62c7.69 12.5 21.22 10.65 31.77 4.15 11.08-6.82 18.83-18.07 11.13-30.57s-21.23-10.64-32.31-3.82c-10.55 6.46-18.29 17.7-10.59 30.2zM1051.3 351.87l8.35 21.44-41.34 34.69.08.2L1072 405l8.34 21.44-69.27 26.95-5.55-14.27 49.09-19.09-.07-.2-55.71 2.17-4.57-11.74 42-35.89-.07-.19-48.61 18.91-5.58-14.27z" fill="#fff"/><path d="M584.84 274.55l-285.66 146.2a3 3 0 01-2.89-.18c-.71-.56-.58-1.37.3-1.82l285.66-146.2a3 3 0 012.89.18c.71.56.58 1.37-.3 1.82z" fill="#58595b"/><path d="M297.88 429.34a10.87 10.87 0 01-6.66-2.22 9.27 9.27 0 01-3.64-8.22 9.49 9.49 0 015.24-7.54l285.65-146.19a11.18 11.18 0 0111.74 1 9.29 9.29 0 013.64 8.22 9.5 9.5 0 01-5.23 7.53L303 428.13a11.2 11.2 0 01-5.12 1.21zm2.5-3.22zM586 279.92z" fill="#58595b"/><path d="M869.43 419L582.06 274.37c-.9-.45-1-1.27-.33-1.84a3 3 0 012.91-.2L872 416.92c.89.45 1 1.27.32 1.83a3 3 0 01-2.89.25z" fill="#58595b"/><path d="M870.72 427.54a11.18 11.18 0 01-5-1.18L578.33 281.77a9.53 9.53 0 01-5.3-7.52 9.3 9.3 0 013.59-8.24 11.18 11.18 0 0111.74-1.09l287.38 144.6A9.49 9.49 0 01881 417a9.29 9.29 0 01-3.57 8.24 11 11 0 01-6.71 2.3zm2.43-16z" fill="#58595b"/><path d="M339.65 498.74h-63v-46h183.66v46h-62.67v159h-58zM674.11 452.76v205h-58v-80h-79.06v80h-58v-205h58v77h79.07v-77zM689.52 555.26c0-62.38 47.74-106.6 112.75-106.6 37.78 0 68.24 13.76 88.16 38.66l-36.9 33.38c-12.89-15.52-28.71-24-48.33-24-33.68 0-57.1 23.43-57.1 58.57s23.42 58.58 57.1 58.58c19.62 0 35.44-8.5 48.33-24l36.9 33.39c-19.92 24.89-50.38 38.65-88.16 38.65-65.01-.03-112.75-44.25-112.75-106.63z" fill="#39b54a"/><path d="M326.15 760.66v2.74c0 8.76 2.48 14.38 12.41 14.38 5.75 0 11.24-3.66 11.24-11.5 0-8.36-4.18-11.76-16.72-15.94-16.73-5.62-24.44-12.81-24.44-28.23 0-18.29 11-27.44 28.88-27.44 16.72 0 28.88 7.19 28.88 25.09v2.61h-18c0-8.88-2.87-13.85-10.19-13.85-8.49 0-10.71 5.23-10.71 10.85s1.7 9.4 9.67 12.67l14.5 6.27c14.11 6.28 17.77 13.2 17.77 24.7 0 19.73-12 28.62-32.4 28.62-21.3 0-29.67-9.93-29.67-27.18v-3.79zM407.3 694.67c28.23 0 31.76 20.12 31.76 48.48s-3.53 48.48-31.76 48.48-31.75-20.12-31.75-48.48 3.53-48.48 31.75-48.48zm0 83.11c11.11 0 12.94-9.54 12.94-34.63s-1.83-34.63-12.94-34.63-12.93 9.67-12.93 34.63 1.83 34.63 12.93 34.63zM448.87 789.8v-93.3h18.81v77.88H501v15.42zM525.71 696.5v65.08c0 9.27 2.09 16.2 11 16.2s11-6.93 11-16.2V696.5h18.82v65.08c0 23.65-14.5 30-29.79 30s-29.8-5.09-29.8-30V696.5zM631.69 696.5v15.42h-20.38v77.88h-18.82v-77.88H572.1V696.5zM639.41 789.8v-93.3h18.82v93.3zM700.7 694.67c28.22 0 31.75 20.12 31.75 48.48s-3.53 48.48-31.75 48.48-31.76-20.12-31.76-48.48 3.53-48.48 31.76-48.48zm0 83.11c11.1 0 12.93-9.54 12.93-34.63s-1.83-34.63-12.93-34.63-12.94 9.67-12.94 34.63 1.83 34.63 12.94 34.63zM764 696.5l22.74 63.9h.26v-63.9h17.2v93.3h-21.43l-23-65.34h-.26v65.34h-17.25v-93.3zM831.12 760.66v2.74c0 8.76 2.49 14.38 12.42 14.38 5.75 0 11.24-3.66 11.24-11.5 0-8.36-4.19-11.76-16.73-15.94-16.73-5.62-24.44-12.81-24.44-28.23 0-18.29 11-27.44 28.88-27.44 16.73 0 28.88 7.19 28.88 25.09v2.61h-18c0-8.88-2.88-13.85-10.19-13.85-8.5 0-10.72 5.23-10.72 10.85s1.7 9.4 9.67 12.67l14.51 6.27c14.11 6.28 17.77 13.2 17.77 24.7 0 19.73-12 28.62-32.41 28.62-21.3 0-29.66-9.93-29.66-27.18v-3.79z" fill="#58595b"/></g></g></svg>